<svg xmlns="http://www.w3.org/2000/svg" width="24.458" height="25.999" viewBox="0 0 24.458 25.999">
  <g id="Iconly_Light_Delete" data-name="Iconly/Light/Delete" transform="translate(0.75 0.75)">
    <g id="Delete">
      <path id="Stroke_1" data-name="Stroke 1" d="M19.212,0s-.735,8.919-1.162,12.677a3,3,0,0,1-3.192,2.879c-3.532.062-7.068.066-10.6-.007a2.97,2.97,0,0,1-3.1-2.863C.731,8.9,0,0,0,0" transform="translate(1.873 8.896)" fill="none" stroke="#686868" stroke-linecap="round" stroke-linejoin="round" stroke-miterlimit="10" stroke-width="1.5"/>
      <path id="Stroke_3" data-name="Stroke 3" d="M22.958.5H0" transform="translate(0 4.121)" fill="none" stroke="#686868" stroke-linecap="round" stroke-linejoin="round" stroke-miterlimit="10" stroke-width="1.5"/>
      <path id="Stroke_5" data-name="Stroke 5" d="M14.111,4.621a2.219,2.219,0,0,1-2.186-1.753L11.6,1.257A1.727,1.727,0,0,0,9.921,0H4.19A1.727,1.727,0,0,0,2.515,1.257l-.329,1.61A2.219,2.219,0,0,1,0,4.621" transform="translate(4.423)" fill="none" stroke="#686868" stroke-linecap="round" stroke-linejoin="round" stroke-miterlimit="10" stroke-width="1.5"/>
    </g>
  </g>
</svg>
