<svg xmlns="http://www.w3.org/2000/svg" width="56.245" height="56.239" viewBox="0 0 56.245 56.239">
  <path id="icon_mail" d="M14.693,56.235a1.433,1.433,0,0,1-.953-.955.816.816,0,0,1,1.046-.953c.4.1.725.511,1.379,1.009-.676.438-1.091.9-1.422.9A.345.345,0,0,1,14.693,56.235ZM.562,56.1a4.157,4.157,0,0,0-.493-.014c.006-.5-.19-1.156.055-1.468a17.612,17.612,0,0,1,2.453-2.47,1.526,1.526,0,0,1,1.216-.177c.273.073.446.521.682.826a4.9,4.9,0,0,1-.519.832,24.327,24.327,0,0,1-2.421,2.345.977.977,0,0,1-.593.14C.819,56.119.691,56.111.562,56.1Zm15.918-3.2a1.253,1.253,0,0,1,.194-1.1c1.842-1.87,3.717-3.712,5.646-5.494a1.259,1.259,0,0,1,1.234.038,1.387,1.387,0,0,1,.145,1.317c-1.753,1.9-3.59,3.731-5.422,5.558-.19.19-.535.223-.957.388C17.037,53.393,16.591,53.211,16.48,52.907ZM35.651,52.9c-.569-.54-.414-1.061.081-1.554,1.785-1.775,3.554-3.566,5.375-5.3a1.407,1.407,0,0,1,1.151-.289c.307.087.5.558.781.9a6.32,6.32,0,0,1-.567.812c-1.777,1.782-3.57,3.549-5.349,5.33a1.182,1.182,0,0,1-.8.418A.978.978,0,0,1,35.651,52.9Zm-29.8-3.957a2.751,2.751,0,0,1,.5-.6q4.805-4.8,9.618-9.582c.079-.08.164-.152.246-.234.507-.5,1.064-.619,1.577-.065s.353,1.058-.164,1.568q-4.383,4.332-8.735,8.7c-.4.4-.777.828-1.208,1.19a4.565,4.565,0,0,1-.826.479C5.943,50.36,5.491,49.606,5.853,48.938Zm23.583-1.006c-2.066-3.755-4.095-7.533-6.215-11.259a3.155,3.155,0,0,0-1.6-1.381c-4.846-1.527-9.727-2.937-14.581-4.442-.5-.155-1.161-.658-1.218-1.072s.474-1.061.915-1.325q9.37-5.586,18.791-11.08c1.129-.662,2.088-.311,1.957.7a1.779,1.779,0,0,1-.84,1.055c-3.613,2.173-7.255,4.3-10.886,6.447q-2.725,1.611-5.442,3.232a7.264,7.264,0,0,0-.713.582c2.06.646,3.944,1.244,5.836,1.824,2.193.67,4.384,1.358,6.6,1.949a1.788,1.788,0,0,0,1.47-.305c5.111-5.225,10.173-10.5,15.251-15.755q4.948-5.119,9.907-10.23c.269-.278.519-.575.777-.863-.057-.069-.117-.14-.174-.212Q47.4,6.9,45.527,8c-3.243,1.915-6.494,3.821-9.727,5.756-.66.394-1.266.636-1.718-.184-.4-.723.006-1.161.646-1.539C41.212,8.195,47.68,4.33,54.166.492c1.549-.917,2.078-.58,2.078,1.244V43.858c0,1.567-.438,1.877-1.92,1.418-4.457-1.383-8.927-2.726-13.37-4.149a2.2,2.2,0,0,0-2.575.628c-2.159,2.211-4.414,4.33-6.627,6.486-.5.489-.88.74-1.213.74C30.152,48.981,29.826,48.639,29.436,47.933Zm2.27-2.616,5.05-5.447-5.05-1.554ZM44.653,14.183q-4.166,4.3-8.329,8.6c-3.568,3.674-7.132,7.356-10.732,11-.735.743-.971,1.321-.319,2.3.834,1.241,1.44,2.634,2.155,3.957.577,1.067,1.169,2.129,1.755,3.192l.335-.125c0-1.725-.079-3.458.036-5.175a4.963,4.963,0,0,1,.769-2.387c4.784-6.939,9.628-13.838,14.45-20.75.246-.351.45-.731.674-1.1A1.55,1.55,0,0,0,44.653,14.183ZM32.347,36.318l21.776,6.635V5.419c-.079-.032-.158-.065-.24-.1C46.745,15.6,39.605,25.869,32.347,36.318ZM30.28,16.707c-.374-.05-.685-.58-1.024-.9.353-.355.666-.921,1.072-1,.3-.056.725.521,1.373,1.04-.635.407-1.04.86-1.376.86A.344.344,0,0,1,30.28,16.707Z" fill="#d76e2d"/>
</svg>
