<svg xmlns="http://www.w3.org/2000/svg" width="57.357" height="57.371" viewBox="0 0 57.357 57.371">
  <path id="icon_phone" d="M28.834,57.368c-1.015,0-2.029-.006-3.042,0-.744,0-1.145-.245-1.157-1.05-.016-.858.469-1.013,1.177-1.011,2.37.014,4.742.03,7.112,0a2.793,2.793,0,0,0,2.805-3.384c-.17-1.02-.465-1.191-1.378-.734a14.709,14.709,0,0,1-12.941.436,14.921,14.921,0,0,1-4.321-2.929C12.736,44.5,8.506,40.178,4.239,35.9A15.029,15.029,0,0,1,3.182,16.187c.571-.718,1.117-1.461,1.742-2.132a4.214,4.214,0,0,1,6.052-.12q3.137,3.112,6.228,6.272a4.208,4.208,0,0,1,.012,6.069c-.606.635-1.257,1.23-1.849,1.882a1.475,1.475,0,0,0,.058,2.315c2.392,2.368,4.8,4.723,7.189,7.091a1.233,1.233,0,0,0,1.987.03c.646-.654,1.281-1.317,1.951-1.945a4.3,4.3,0,0,1,6.162.052q3.1,3.067,6.166,6.175a4.214,4.214,0,0,1-.317,6.367c-.489.418-.975.846-1.556,1.351a4.784,4.784,0,0,1,.213,5.5,4.176,4.176,0,0,1-3.74,2.253c-.991.021-1.983.027-2.974.027ZM3.454,19.8a13.012,13.012,0,0,0,2.31,14.673q6.268,6.4,12.655,12.674a12.6,12.6,0,0,0,11.064,3.464,30.662,30.662,0,0,0,4.855-1.539c-.427-.532-.531-.69-.662-.82-2.663-2.64-5.316-5.29-8.013-7.892a1.643,1.643,0,0,0-1.2-.239,3.783,3.783,0,0,1-3.391-.948c-2.456-2.468-4.919-4.931-7.343-7.43a3.554,3.554,0,0,1-.94-3.388,1.65,1.65,0,0,0-.377-1.275c-2.464-2.568-4.975-5.09-7.477-7.617-.231-.235-.5-.429-.864-.734C3.821,19.163,3.625,19.474,3.454,19.8Zm24.83,17.214c-.5.409-1.011.816-1.676,1.355,3.17,3.163,6.056,6.048,8.957,8.918a.731.731,0,0,0,.606.142A2.51,2.51,0,0,0,37.382,43.3C35.3,41.168,33.151,39.105,31,37.045a1.906,1.906,0,0,0-1.334-.541A2.206,2.206,0,0,0,28.284,37.015ZM6.444,15.537c-.393.407-.724.873-1.211,1.466,2.948,2.929,5.791,5.763,8.648,8.58a.9.9,0,0,0,.684.264c1.444-.388,2.33-2.829,1.341-3.888Q12.778,18.6,9.486,15.4a2.04,2.04,0,0,0-1.429-.65A2.28,2.28,0,0,0,6.444,15.537ZM9.65,57.159a39.762,39.762,0,0,1-3.142-3.137,1.108,1.108,0,0,1,.058-1.083c.245-.263.96-.5,1.123-.357,1.189,1.055,2.292,2.207,3.409,3.338a.742.742,0,0,1,.12.34,1.119,1.119,0,0,1-1.053,1.093A.767.767,0,0,1,9.65,57.159Zm5.646-.042a42.132,42.132,0,0,1-3.054-3.087,1.1,1.1,0,0,1,.046-1.084c.255-.263.975-.5,1.147-.349,1.171,1.024,2.256,2.149,3.355,3.255.092.093.08.289.154.586-.168.218-.335.619-.622.748a1.209,1.209,0,0,1-.471.086A.866.866,0,0,1,15.3,57.116Zm5.637,0a38.488,38.488,0,0,1-3.084-3.059.991.991,0,0,1-.048-.926,3.464,3.464,0,0,1,.874-.759,2.876,2.876,0,0,1,.726.359c.995,1,2.007,1.991,2.914,3.065a1.182,1.182,0,0,1-.114,1.165,1.575,1.575,0,0,1-.875.258A.618.618,0,0,1,20.934,57.112Zm-1.849-12.2c-.381-.086-.944-.686-.9-.994a1.432,1.432,0,0,1,1.021-.928c.313-.036.7.534,1.341,1.079-.651.4-1.08.851-1.392.851A.291.291,0,0,1,19.085,44.917Zm-3.776-3.482a1.958,1.958,0,0,1-.654-.449q-3.17-3.154-6.326-6.324c-.521-.523-.922-1.091-.21-1.754.672-.63,1.263-.3,1.795.224q3.17,3.161,6.318,6.341a4.861,4.861,0,0,1,.567.828,1.194,1.194,0,0,1-1.158,1.194A.929.929,0,0,1,15.309,41.434ZM37.348,29.459c-.277-.058-.563-.822-.582-1.279-.1-2.771-.076-2.771-2.8-2.771H27.657a8.065,8.065,0,0,1-8.293-8.236q0-4.424,0-8.851A8.036,8.036,0,0,1,27.5.037C34.689-.023,41.881,0,49.072.03A8.122,8.122,0,0,1,57.247,8.4c-.112,1.447-.018,2.911-.018,4.366l.128.006A44.187,44.187,0,0,1,56.9,19.5a7.844,7.844,0,0,1-7.79,5.908c-.581,0-1.161,0-1.74,0-1.372-.008-2.743-.014-4.113.032a2.371,2.371,0,0,0-1.386.575c-1.051.947-1.981,2.029-3.042,2.961a2.14,2.14,0,0,1-1.277.506A1.009,1.009,0,0,1,37.348,29.459Zm-1.161-6.114c2.268,0,2.266,0,2.661,2.147.01.06.086.108.307.373.405-.465.828-.894,1.185-1.373a2.948,2.948,0,0,1,2.781-1.173c1.909.094,3.824.039,5.737.022a6.259,6.259,0,0,0,6.316-6.33q.009-4.312,0-8.62a5.98,5.98,0,0,0-5.8-6.169q-11.072-.132-22.145,0a5.98,5.98,0,0,0-5.8,6.066c-.014,2.758.074,5.519-.022,8.275-.14,4.144,2.691,6.856,6.753,6.79,1.009-.018,2.019-.023,3.029-.023C32.851,23.33,34.519,23.345,36.187,23.345ZM47.42,17.74a1.009,1.009,0,0,1-.592-1.483c.8-2.089,1.58-4.19,2.432-6.465-.868,0-1.58-.014-2.29,0-.756.018-1.151-.311-1.131-1.089.018-.721.389-1,1.1-.988.594.012,1.187.007,1.781,0,.628,0,1.255-.006,1.885.01.952.024,1.414.626,1.089,1.525-.942,2.619-1.941,5.215-2.928,7.814-.178.468-.469.768-.89.768A1.187,1.187,0,0,1,47.42,17.74Zm-21.473-.02c-.373-.014-.971-.347-1.035-.631a1.6,1.6,0,0,1,.423-1.259c.938-.948,2-1.77,2.952-2.706a4.983,4.983,0,0,0,1.019-1.5c.311-.7.357-1.455-.553-1.812-.836-.325-1.506.1-1.835,1.012-.14.389-.345.91-.66,1.048-.962.423-1.56-.188-1.408-1.343a3.442,3.442,0,0,1,4.325-2.808,3.163,3.163,0,0,1,2.24,4.2,13.39,13.39,0,0,1-1.592,2.611,12.252,12.252,0,0,1-.965,1.092,9.285,9.285,0,0,1,2.292.042,1.923,1.923,0,0,1,1.207,1.027c.207.77-.471,1.038-1.143,1.046-.917.013-1.835.025-2.752.025C27.623,17.761,26.785,17.751,25.946,17.72ZM39.4,16.942l.822-2.112c.814-2.091,1.652-4.173,2.432-6.277.287-.774.8-1.036,1.5-.769.776.3.746.905.465,1.609C43.6,11.935,42.657,14.507,41.6,17.03a1.537,1.537,0,0,1-1.177.72h0C40.086,17.75,39.745,17.234,39.4,16.942Zm-2.553.748c-.754,0-1.011-.415-1.051-1.066-.036-.563-.052-1.127-.084-1.833-.928,0-1.761.01-2.593,0-1.267-.019-1.708-.67-1.119-1.748.876-1.606,1.835-3.165,2.735-4.759.383-.68,1-.83,1.506-.411a1.484,1.484,0,0,1,.239,1.371c-.475,1.109-1.125,2.141-1.724,3.239.714.458,1.025.271,1.043-.489.016-.665.255-1.046,1.015-1.082.79-.038,1.035.391,1.043,1.022.022,1.6,0,3.2-.02,4.805-.006.634-.3.952-.976.952Z" fill="#d76e2d"/>
</svg>
