<svg xmlns="http://www.w3.org/2000/svg" width="46.127" height="57.339" viewBox="0 0 46.127 57.339">
  <path id="icon_mail" d="M21.469,56.448A76.951,76.951,0,0,1,4.2,36.592,27.35,27.35,0,0,1,0,23.15C-.117,14.572,3.769,8.005,11.031,3.4A21.527,21.527,0,0,1,27.591.555c9.589,2.086,15.5,8.073,17.974,17.352a32.311,32.311,0,0,1,.562,4.65c-.078,4.844-1.766,9.2-4,13.4A62.048,62.048,0,0,1,31.07,50.371c-2.087,2.106-4.332,4.064-6.551,6.04-.7.623-1.11.928-1.524.928S22.171,57.038,21.469,56.448ZM6.673,9.935A19.829,19.829,0,0,0,2.1,22.524a24.241,24.241,0,0,0,2.954,11.2,53.459,53.459,0,0,0,8.8,12.342c2.86,3.057,5.9,5.954,8.953,9.016A80.612,80.612,0,0,0,38.427,38.127,30.385,30.385,0,0,0,43.66,25.52c1.1-8.1-1.832-14.6-8.395-19.407A20.562,20.562,0,0,0,23.073,2.134,21.15,21.15,0,0,0,6.673,9.935Zm-.129,14.92a22.885,22.885,0,0,1-.127-2.517c-.28-7.5,5.628-14.368,13.085-15.877A17.468,17.468,0,0,1,30.416,7.769a3.815,3.815,0,0,1,.491.3c.511.34.951.708.57,1.405s-.893.726-1.564.4a16.444,16.444,0,0,0-7.428-1.634c-6.255.079-12.291,4.887-13.6,10.919a14.094,14.094,0,0,0,10.891,17.1c9.327,2.054,17.719-4.932,17.68-13.609a27.649,27.649,0,0,0-.936-5.38c-.135-.644-.515-1.323.319-1.681.906-.39,1.3.209,1.621.97,3.737,8.772-1.588,19.171-10.955,21.59a17.738,17.738,0,0,1-4.439.568A16.5,16.5,0,0,1,6.543,24.855ZM22.808,33.7A11.379,11.379,0,0,1,11.514,21.9a11.524,11.524,0,0,1,23.019.854A11.465,11.465,0,0,1,22.965,33.7Zm-9.18-11.258a9.383,9.383,0,0,0,18.761.037,9.177,9.177,0,0,0-9.411-9.187A9.254,9.254,0,0,0,13.628,22.444ZM21.287,25.8a16.009,16.009,0,0,1-1.85-2.192c-.2-.3-.178-1.076.039-1.229a1.674,1.674,0,0,1,1.4-.143c.454.194.762.722,1.3,1.275.744-.936,1.4-1.768,2.067-2.6.286-.356.527-.826.9-1.016a1.5,1.5,0,0,1,1.3-.049,1.282,1.282,0,0,1,.278,1.245c-1.126,1.636-2.318,3.233-3.59,4.76a1.09,1.09,0,0,1-.848.416A1.4,1.4,0,0,1,21.287,25.8ZM34.363,13.229c-.4-.109-.683-.6-1.323-1.216.777-.4,1.249-.843,1.642-.785a1.4,1.4,0,0,1,.873,1.024.882.882,0,0,1-.876,1.022A1.181,1.181,0,0,1,34.363,13.229Z" fill="#d76e2d"/>
</svg>
