<svg xmlns="http://www.w3.org/2000/svg" width="46.127" height="57.341" viewBox="0 0 46.127 57.341">
  <g id="Group_55623" data-name="Group 55623" transform="translate(-401.999 -538.083)">
    <path id="Op_component_1" data-name="Op component 1" d="M415.4,6967.455c-.079,4.844-1.767,9.2-4,13.4a62.091,62.091,0,0,1-11.054,14.411c-2.087,2.105-4.333,4.063-6.551,6.04-1.393,1.242-1.642,1.222-3.05.036a76.933,76.933,0,0,1-17.271-19.857,27.333,27.333,0,0,1-4.2-13.44c-.12-8.578,3.767-15.145,11.028-19.751a21.519,21.519,0,0,1,16.559-2.845c9.59,2.087,15.5,8.075,17.973,17.353A32.383,32.383,0,0,1,415.4,6967.455Zm-23.322,32.523a80.628,80.628,0,0,0,15.622-16.953,30.4,30.4,0,0,0,5.233-12.608c1.1-8.1-1.834-14.6-8.4-19.407a20.978,20.978,0,0,0-28.592,3.822,19.829,19.829,0,0,0-4.574,12.588,24.241,24.241,0,0,0,2.955,11.2,53.476,53.476,0,0,0,8.8,12.341C385.983,6994.018,389.021,6996.915,392.075,6999.978Z" transform="translate(32.729 -6406.814)" fill="#d76e2d"/>
    <path id="Op_component_2" data-name="Op component 2" d="M375.025,6966.607c-.28-7.5,5.628-14.369,13.086-15.876a17.473,17.473,0,0,1,10.915,1.308,3.617,3.617,0,0,1,.49.3c.511.341.952.707.569,1.4s-.892.727-1.564.405a16.442,16.442,0,0,0-7.427-1.634c-6.255.078-12.291,4.888-13.6,10.918a14.094,14.094,0,0,0,10.891,17.1c9.327,2.054,17.719-4.933,17.68-13.609a27.652,27.652,0,0,0-.936-5.379c-.134-.645-.514-1.323.319-1.682.906-.39,1.3.21,1.62.97,3.739,8.773-1.586,19.172-10.954,21.591-9.622,2.485-19.41-3.416-20.965-13.307A23.07,23.07,0,0,1,375.025,6966.607Z" transform="translate(33.389 -6406.188)" fill="#d76e2d"/>
    <path id="Op_component_3" data-name="Op component 3" d="M391.037,6954.931a11.266,11.266,0,1,1-.146,22.518,11.26,11.26,0,1,1,.146-22.518Zm.025,2.11a9.161,9.161,0,1,0,9.411,9.188A9.251,9.251,0,0,0,391.062,6957.042Z" transform="translate(33.914 -6405.664)" fill="#d76e2d"/>
    <path id="Op_component_4" data-name="Op component 4" d="M398.9,6955.756c.778-.4,1.249-.843,1.644-.785a1.4,1.4,0,0,1,.871,1.024.893.893,0,0,1-1.191.978C399.831,6956.863,399.544,6956.368,398.9,6955.756Z" transform="translate(36.134 -6405.66)" fill="#d76e2d"/>
    <path id="Op_component_5" data-name="Op component 5" d="M389.454,6966.376c.744-.936,1.4-1.769,2.067-2.6.287-.357.526-.826.906-1.017a1.51,1.51,0,0,1,1.3-.048,1.284,1.284,0,0,1,.278,1.245c-1.127,1.635-2.318,3.233-3.592,4.759a1.183,1.183,0,0,1-1.844-.055,15.97,15.97,0,0,1-1.85-2.191c-.2-.3-.179-1.077.038-1.231a1.677,1.677,0,0,1,1.4-.142C388.613,6965.3,388.919,6965.825,389.454,6966.376Z" transform="translate(34.718 -6404.787)" fill="#d76e2d"/>
  </g>
</svg>
