<svg xmlns="http://www.w3.org/2000/svg" width="88" height="88" viewBox="0 0 88 88">
  <g id="Group_55364" data-name="Group 55364" transform="translate(-401 -2838)">
    <circle id="Ellipse_3201" data-name="Ellipse 3201" cx="44" cy="44" r="44" transform="translate(401 2838)" fill="#fff"/>
    <path id="image_83_Traced_" data-name="image 83 (Traced)" d="M14.7,5.752C6.681,8.842.122,11.4.122,11.442s1.39.567,3.089,1.173l3.089,1.1.274-.538c.151-.3.286-.552.3-.569s.515-.077,1.112-.134c.858-.082,1.119-.071,1.245.051s.09.173-.289.271c-.247.064-.642.152-.878.194-.532.1-.543.11-1.069,1.38l-.983,2.373a43.118,43.118,0,0,0-2.49,7.978,13.549,13.549,0,0,0-.13,3.292,6.444,6.444,0,0,0,.832.341,6.04,6.04,0,0,0,3.067.276,5.126,5.126,0,0,0,1.72-.679c0-.04.156-2.67.346-5.846s.345-6.2.346-6.723c0-.89.017-.954.26-1.012.69-.164,3.8-.866,3.835-.866s-.015.149-.083.332c-.113.3-.27.378-1.682.831l-1.557.5.483.205c.266.113,4.56,1.46,9.544,2.993l9.061,2.788L38.08,18.54c6.395-1.963,10.06-3.163,14.721-4.821,3.413-1.214,6.206-2.24,6.206-2.279,0-.111-29.242-11.329-29.5-11.317C29.38.129,22.716,2.662,14.7,5.752ZM11.9,22.368c0,3.972.029,4.819.183,5.337.673,2.267,3.543,4.2,8.122,5.484a39.808,39.808,0,0,0,16.462.52c5.162-.989,8.958-3,10.162-5.376l.345-.682.035-5c.033-4.773.025-5-.173-4.939L38.2,20.427l-8.631,2.654-8.631-2.654L12.1,17.71C11.911,17.651,11.9,17.925,11.9,22.368Z" transform="translate(415.878 2864.877)" fill="#ff8f33" fill-rule="evenodd"/>
  </g>
</svg>
