<svg xmlns="http://www.w3.org/2000/svg" width="88" height="88" viewBox="0 0 88 88">
  <g id="Group_55363" data-name="Group 55363" transform="translate(-1104 -2838)">
    <circle id="Ellipse_3202" data-name="Ellipse 3202" cx="44" cy="44" r="44" transform="translate(1104 2838)" fill="#fff"/>
    <path id="image_84_Traced_" data-name="image 84 (Traced)" d="M18.433.336a10.373,10.373,0,0,0-7.846,7.183,7.6,7.6,0,0,0-.3,2.773,7.6,7.6,0,0,0,.3,2.774,10.335,10.335,0,0,0,6.954,6.954,7.6,7.6,0,0,0,2.773.3,7.6,7.6,0,0,0,2.773-.3,10.335,10.335,0,0,0,6.954-6.954,7.444,7.444,0,0,0,.3-2.71,8.174,8.174,0,0,0-1-4.538A10.127,10.127,0,0,0,23.151.583,14.275,14.275,0,0,0,18.433.336ZM13.57,22.6A16.271,16.271,0,0,0,.347,35.875a26.434,26.434,0,0,0-.2,4.236c0,2.961.008,3.06.287,3.473a3.149,3.149,0,0,0,.712.712l.425.287H19.493l-3.43-3.435c-3.34-3.345-3.817-3.924-3.817-4.628,0-.14,1.047-3.376,2.326-7.19L16.9,22.395l-1.16.011A16.036,16.036,0,0,0,13.57,22.6Zm12.489,6.751c1.278,3.823,2.324,7.059,2.324,7.19,0,.685-.5,1.285-3.817,4.611l-3.43,3.435H39.061l.425-.287a3.149,3.149,0,0,0,.712-.712c.279-.413.287-.512.287-3.473,0-3.392-.146-4.624-.777-6.559A16.112,16.112,0,0,0,24.776,22.395H23.735Zm-7.667,1.022-1.858,5.578,1.891,1.891,1.891,1.891,1.891-1.891L24.1,35.946l-1.858-5.578C21.216,27.3,20.35,24.79,20.314,24.79S19.413,27.3,18.391,30.368Z" transform="translate(1127.856 2859.764)" fill="#83c982" fill-rule="evenodd"/>
  </g>
</svg>
