<svg xmlns="http://www.w3.org/2000/svg" width="32.257" height="32.258" viewBox="0 0 32.257 32.258">
  <path id="Path_333" data-name="Path 333" d="M309.254,88.129A16.128,16.128,0,1,1,293.126,72,16.128,16.128,0,0,1,309.254,88.129ZM297,82.137c2.244.771,3.885,1.924,3.563,4.071a2.827,2.827,0,0,1-2.271,2.6c1.6.827,2.138,2.4,1.633,4.294-.959,2.731-3.238,2.961-6.269,2.39l-.736,2.936-1.777-.442.726-2.9q-.69-.171-1.416-.366l-.729,2.91-1.775-.442.735-2.942-3.579-.9.883-2.027s1.31.346,1.292.321a.648.648,0,0,0,.815-.42l1.995-7.968a.943.943,0,0,0-.829-1.03c.028-.019-1.29-.32-1.29-.32l.472-1.891,3.584.884.729-2.908,1.776.442-.714,2.851c.478.108.958.218,1.425.334l.708-2.833,1.777.442Zm-4.251,4.852c1.21.321,3.844,1.019,4.3-.812.468-1.873-2.09-2.439-3.343-2.716h0c-.142-.031-.267-.059-.37-.085l-.884,3.536C292.539,86.933,292.638,86.959,292.749,86.988Zm-1.371,5.693c1.449.382,4.62,1.217,5.124-.8.517-2.063-2.557-2.75-4.057-3.085h0c-.167-.037-.315-.07-.436-.1l-.976,3.9c.1.024.215.055.345.089Z" transform="translate(-276.997 -72)" fill="#f7931a" fill-rule="evenodd"/>
</svg>
