<svg xmlns="http://www.w3.org/2000/svg" width="50.132" height="20.836" viewBox="0 0 50.132 20.836">
  <path id="Path_325" data-name="Path 325" d="M526.16,60.686a3.064,3.064,0,0,1-2.468,1.18,3.562,3.562,0,0,1,.882-2.587A3.666,3.666,0,0,1,527.022,58,3.792,3.792,0,0,1,526.16,60.686Zm.852,1.368a5.134,5.134,0,0,0-2.194.495,1.855,1.855,0,0,1-2-.007h0a4.431,4.431,0,0,0-1.7-.428,4.017,4.017,0,0,0-3.418,2.1c-1.469,2.557-.382,6.344,1.038,8.426.7,1.031,1.528,2.161,2.625,2.121a3.125,3.125,0,0,0,1.189-.322,3.478,3.478,0,0,1,1.513-.362,3.283,3.283,0,0,1,1.453.352,2.784,2.784,0,0,0,1.27.312c1.136-.02,1.851-1.031,2.546-2.062a9.123,9.123,0,0,0,1.13-2.35l.006-.019-.027-.013a3.714,3.714,0,0,1-2.186-3.387,3.8,3.8,0,0,1,1.763-3.172l.029-.02A3.866,3.866,0,0,0,527.012,62.054Zm7.863,12.579V59.18H540.6a4.818,4.818,0,0,1,5.024,5.075,4.875,4.875,0,0,1-5.1,5.1h-3.281v5.283Zm2.37-13.431h2.732c2.057,0,3.232,1.11,3.232,3.063s-1.175,3.073-3.242,3.073h-2.722ZM553.452,72.78a3.911,3.911,0,0,1-3.5,1.973c-2.2,0-3.741-1.328-3.741-3.331,0-1.983,1.489-3.122,4.24-3.291l2.958-.178V67.1c0-1.259-.813-1.943-2.262-1.943a2.084,2.084,0,0,0-2.243,1.576h-2.135c.069-2,1.93-3.46,4.446-3.46,2.713,0,4.475,1.437,4.475,3.668v7.692H553.5V72.78Zm-2.86.139c-1.263,0-2.066-.615-2.066-1.556,0-.971.774-1.536,2.252-1.626l2.635-.169v.872A2.588,2.588,0,0,1,550.592,72.919Zm12.378,2.319c-.95,2.706-2.037,3.6-4.348,3.6a6.456,6.456,0,0,1-.9-.06V76.923c.147.02.51.04.7.04a1.888,1.888,0,0,0,2-1.606l.216-.684-4.015-11.251h2.477l2.791,9.129h.049l2.791-9.129h2.409Z" transform="translate(-517 -58)" fill-rule="evenodd"/>
</svg>
