<svg xmlns="http://www.w3.org/2000/svg" width="55" height="20.258" viewBox="0 0 55 20.258">
  <g id="Group_55623" data-name="Group 55623" transform="translate(-1481.104 -384)">
    <path id="Path_323" data-name="Path 323" d="M603,72.92c.037-.2.07-.387.1-.574.051-.289.1-.569.157-.848q.359-1.9.722-3.794t.723-3.794c.033-.16.08-.267.239-.294a9.412,9.412,0,0,1,3.742-.007,2.465,2.465,0,0,1,1.971,1.937,3.347,3.347,0,0,1-2.337,3.747,6.093,6.093,0,0,1-2.5.254c-.2-.02-.259.033-.293.227-.18.982-.366,1.957-.559,2.932-.013.08-.087.207-.133.207-.453.01-.9.009-1.36.008H603Zm3.242-4.956h0a5.352,5.352,0,0,0,.746-.013,1.813,1.813,0,0,0,1.559-1.049,1.237,1.237,0,0,0-.566-1.777,3.023,3.023,0,0,0-1.445-.067.244.244,0,0,0-.153.16c-.094.49-.187.981-.283,1.491-.076.4-.155.815-.237,1.247C605.993,67.958,606.119,67.962,606.242,67.965Zm8.564,3.673c-.106.11-.2.22-.3.328h0a4.8,4.8,0,0,1-.638.633,2.123,2.123,0,0,1-2.3.287,2.036,2.036,0,0,1-1.159-1.924,4.593,4.593,0,0,1,2.031-4.248,4.883,4.883,0,0,1,3.116-.775,9.685,9.685,0,0,1,1.1.15c.2.035.395.069.593.1.226.033.259.16.219.354q-.079.419-.161.837h0c-.2,1.041-.4,2.08-.571,3.123-.1.6-.135,1.209-.173,1.814h0c-.007.106-.013.211-.02.316-.013.214-.067.3-.286.294q-.619-.02-1.239,0c-.213.007-.286-.074-.266-.281.019-.229.031-.465.044-.709C614.795,71.839,614.8,71.739,614.806,71.638Zm.466-4.128a1.691,1.691,0,0,0-1.638.327,3.181,3.181,0,0,0-1.165,2.772.865.865,0,0,0,.512.815.9.9,0,0,0,.966-.2,2.47,2.47,0,0,0,.446-.5,5.754,5.754,0,0,0,.728-2.354C615.166,68.083,615.212,67.8,615.272,67.511Zm9.435,3.74c.366,1.175,1.372,1.83,3.136,1.83a3.718,3.718,0,0,0,3.17-2.137,4.52,4.52,0,0,0,.492-2.431,2.565,2.565,0,0,0-1.038-2.01,3.178,3.178,0,0,0-2.351-.534A4.186,4.186,0,0,0,624.707,71.251Zm1.9-.981c0-.034,0-.068,0-.1a3.657,3.657,0,0,1,.666-2.117,1.4,1.4,0,0,1,.812-.574,1.057,1.057,0,0,1,1.352,1.015,3.535,3.535,0,0,1-.739,2.565,1.265,1.265,0,0,1-.879.508,1.092,1.092,0,0,1-1.212-1.089C626.6,70.409,626.6,70.339,626.6,70.27Zm6.487-4.162h1.692c-.027.361-.054.708-.087,1.062l.179-.17h0c.124-.119.244-.233.366-.337a2.683,2.683,0,0,1,2.284-.688,1.519,1.519,0,0,1,1.3,1.389,7.473,7.473,0,0,1-.2,2.266l-.032.165q-.087.455-.173.909h0c-.126.664-.253,1.327-.385,1.988-.02.087-.12.214-.187.22-.572.013-1.145.007-1.717,0h0a.153.153,0,0,1-.068-.026l-.039-.021c.107-.554.213-1.115.313-1.676.153-.862.3-1.716.433-2.578a1.46,1.46,0,0,0-.007-.448.654.654,0,0,0-.925-.594,1.817,1.817,0,0,0-1,.942,5.946,5.946,0,0,0-.586,1.957l-.09.5c-.1.572-.2,1.143-.316,1.717-.02.087-.12.22-.187.227-.467.016-.938.015-1.44.014h-.391C632.265,70.63,632.677,68.379,633.09,66.108Zm9.6,5.417a1.184,1.184,0,0,1-1.132-1.276c.147,0,.294,0,.439,0h0c.29,0,.576.009.859,0a5,5,0,0,0,1.985-.467,1.992,1.992,0,0,0-.267-3.687,3.48,3.48,0,0,0-3.422.735,4.294,4.294,0,0,0-1.485,3.947,2.332,2.332,0,0,0,1.811,2.171,5.383,5.383,0,0,0,3.436-.314.308.308,0,0,0,.166-.24c-.016-.326-.049-.652-.082-.978h0l-.024-.244-.051,0a.072.072,0,0,0-.036,0c-.073.027-.146.053-.213.08A4.107,4.107,0,0,1,642.692,71.525Zm1.032-2.959a4.026,4.026,0,0,1-1.971.234,1.624,1.624,0,0,1,1.838-1.389.6.6,0,0,1,.506.494A.614.614,0,0,1,643.724,68.566Zm4.488,1.71a1.163,1.163,0,0,0,1.119,1.249,4.136,4.136,0,0,0,1.931-.247l.174-.067h0l.172-.066c.013.141.027.28.041.417h0c.03.283.059.557.072.832a.318.318,0,0,1-.16.24,5.279,5.279,0,0,1-3.489.3,2.339,2.339,0,0,1-1.764-2.144,4.31,4.31,0,0,1,1.138-3.62,3.543,3.543,0,0,1,3.736-1.075,1.834,1.834,0,0,1,1.411,1.79,1.871,1.871,0,0,1-1.178,1.93,6.476,6.476,0,0,1-2.637.468C648.6,70.276,648.412,70.276,648.212,70.276Zm.55-1.442h0c.3-.015.58-.029.862-.067a2.577,2.577,0,0,0,.772-.227.58.58,0,0,0,.346-.648.566.566,0,0,0-.486-.481,1.622,1.622,0,0,0-1.851,1.443C648.526,68.845,648.645,68.84,648.762,68.834Zm4.2,2.691c-.086.454-.166.9-.253,1.4h.4c.512,0,1,0,1.49-.014.046,0,.12-.127.133-.207.068-.334.131-.669.194-1,.116-.618.232-1.235.379-1.841a2.192,2.192,0,0,1,2.19-1.99.224.224,0,0,0,.153-.114c.084-.384.159-.771.236-1.172.04-.206.081-.416.124-.631a2.665,2.665,0,0,0-2.584,1.5l.01-.131c.03-.4.061-.8.1-1.232h-.408c-.4,0-.772,0-1.15.008a.3.3,0,0,0-.16.2,44.546,44.546,0,0,1-.814,5.073Z" transform="translate(878.104 326.473)" fill-rule="evenodd"/>
    <path id="Path_324" data-name="Path 324" d="M635.33,58.053c-.067-.019-.135-.037-.2-.053-.207,0-.413,0-.633.007l-.226.05c-.092.021-.185.042-.28.061a10.643,10.643,0,0,0-2.9,1.06,22.315,22.315,0,0,0-5.413,4.057c-1.073,1.073-2.111,2.2-3.117,3.346a31.093,31.093,0,0,0-4.481,6.685,15.114,15.114,0,0,0-1.432,3.952,1.834,1.834,0,0,0,.114.816c.033.1.219.181.346.223.033.014.133-.16.18-.258l.05-.116c.29-.661.681-1.555,1.02-2.147.719-1.255,1.287-2.226,2.093-3.418a41.966,41.966,0,0,1,4.385-5.457,21.079,21.079,0,0,1,4.883-4.03c.866-.481,1.751-.955,2.657-1.345a19.863,19.863,0,0,1,4.874-1.394.688.688,0,0,0,.48-.328.671.671,0,0,0-.2-.537,3.288,3.288,0,0,0-1.858-1.094A3.005,3.005,0,0,1,635.33,58.053Zm-15.244,9.511a8.966,8.966,0,0,0,.5-2.823c-.009-.1-.016-.209-.023-.314-.015-.209-.03-.418-.057-.627a7.307,7.307,0,0,0-1.9-4.168,1.26,1.26,0,0,0-.473-.3c-.173-.07-.286.035-.273.244a.058.058,0,0,1,0,.013,5.154,5.154,0,0,0,.059.537c.047.279.093.557.14.837.165.992.331,1.986.513,2.976s.379,1.987.592,2.97a4.3,4.3,0,0,0,.34.92c.113.223.273.2.419,0A.909.909,0,0,0,620.086,67.564Z" transform="translate(878.104 326)" fill="#fc461e" fill-rule="evenodd"/>
  </g>
</svg>
