<svg xmlns="http://www.w3.org/2000/svg" width="22.226" height="26.328" viewBox="0 0 22.226 26.328">
  <g id="Group_55625" data-name="Group 55625" transform="translate(-1069.274 -347.961)">
    <path id="Path_326" data-name="Path 326" d="M454.088,80.9l.455-2.9-1.013-.024H448.7l3.36-21.387a.282.282,0,0,1,.093-.168.275.275,0,0,1,.18-.066h8.15c2.707,0,4.574.565,5.549,1.681a3.843,3.843,0,0,1,.889,1.673,6.063,6.063,0,0,1,.006,2.307l-.01.067v.59l.457.26a3.227,3.227,0,0,1,.925.708,3.308,3.308,0,0,1,.751,1.691,7.185,7.185,0,0,1-.107,2.454,8.68,8.68,0,0,1-1,2.777,5.7,5.7,0,0,1-1.586,1.745,6.419,6.419,0,0,1-2.136.968,10.616,10.616,0,0,1-2.67.31h-.634a1.909,1.909,0,0,0-1.886,1.617l-.048.261-.8,5.108-.036.188a.165.165,0,0,1-.051.109.134.134,0,0,1-.083.031Z" transform="translate(621.5 292.5)" fill="#28356a" fill-rule="evenodd"/>
    <path id="Path_327" data-name="Path 327" d="M467.8,62.149c-.024.156-.052.316-.083.48-1.075,5.541-4.753,7.456-9.45,7.456h-2.391a1.163,1.163,0,0,0-1.148.987L453.16,81.079a.613.613,0,0,0,.6.71h4.241a1.022,1.022,0,0,0,1.008-.864l.042-.216.8-5.088.051-.279a1.021,1.021,0,0,1,1.008-.866h.634c4.109,0,7.327-1.675,8.267-6.523.392-2.025.189-3.716-.85-4.905A4.066,4.066,0,0,0,467.8,62.149Z" transform="translate(621.5 292.5)" fill="#298fc2" fill-rule="evenodd"/>
    <path id="Path_328" data-name="Path 328" d="M466.678,61.7c-.164-.048-.334-.092-.508-.131s-.353-.072-.538-.1a13.232,13.232,0,0,0-2.108-.154h-6.388a1.018,1.018,0,0,0-1.007.865l-1.36,8.643-.039.252a1.163,1.163,0,0,1,1.148-.988h2.392c4.7,0,8.374-1.915,9.449-7.456.032-.164.059-.324.083-.48a5.713,5.713,0,0,0-.883-.374C466.84,61.749,466.759,61.724,466.678,61.7Z" transform="translate(621.5 292.5)" fill="#22284f" fill-rule="evenodd"/>
    <path id="Path_329" data-name="Path 329" d="M456.129,62.177a1.019,1.019,0,0,1,.567-.764,1.007,1.007,0,0,1,.44-.1h6.389a13.249,13.249,0,0,1,2.108.154q.276.044.538.1t.507.131l.242.075a5.769,5.769,0,0,1,.883.374,5.247,5.247,0,0,0-1.105-4.7c-1.216-1.39-3.41-1.985-6.217-1.985H452.33a1.167,1.167,0,0,0-1.152.989l-3.4,21.607a.7.7,0,0,0,.691.813h5.032Z" transform="translate(621.5 292.5)" fill="#28356a" fill-rule="evenodd"/>
  </g>
</svg>
