<svg xmlns="http://www.w3.org/2000/svg" width="29.461" height="29.454" viewBox="0 0 29.461 29.454">
  <path id="_006-bar-chart_Traced_" data-name="006-bar-chart (Traced)" d="M26.627,1.006a2.818,2.818,0,0,0-1.449.746,2.543,2.543,0,0,0-.724,2.228c.04.216.087.43.1.477.027.07-1.655,1.613-3.838,3.52l-.216.189-.428-.146a2.533,2.533,0,0,0-3.114,1.262,2.269,2.269,0,0,0-.228.572.436.436,0,0,1-.046.2,14.978,14.978,0,0,1-1.716.418l-1.671.351-.344-.371a2.52,2.52,0,0,0-2.477-.781A2.6,2.6,0,0,0,8.469,12.43l.021.492L6.864,14.071,5.236,15.22l-.365-.178a2.6,2.6,0,0,0-3.706,2.7,2.652,2.652,0,0,0,1.813,2.113,3.162,3.162,0,0,0,.761.093,2.368,2.368,0,0,0,1.845-.781A2.309,2.309,0,0,0,6.3,17.227l-.029-.559,1.258-.888L9.175,14.62l.387-.271.326.16a2.525,2.525,0,0,0,2.955-.451,2.611,2.611,0,0,0,.733-1.265l.039-.231,1.689-.353,1.689-.353.378.388a2.546,2.546,0,0,0,1.476.794,2.6,2.6,0,0,0,2.74-1.453,2.675,2.675,0,0,0,.149-1.907c-.042-.181.007-.23,1.994-1.993,1.12-.994,2.054-1.8,2.074-1.792a3.009,3.009,0,0,0,1.233.267,2.592,2.592,0,1,0-.411-5.154ZM24.478,8.054a1.148,1.148,0,0,0-.322.322c-.12.2-.122.331-.122,10.807s0,10.61.122,10.807a1.148,1.148,0,0,0,.322.322c.19.116.313.122,2.591.122s2.4-.006,2.591-.122a1.148,1.148,0,0,0,.322-.322c.12-.2.122-.331.122-10.807s0-10.61-.122-10.807a1.148,1.148,0,0,0-.322-.322c-.19-.116-.313-.122-2.591-.122S24.668,7.938,24.478,8.054Zm-7.657,6.811a.946.946,0,0,0-.6.8c-.021.179-.03,3.429-.02,7.223.018,6.771.021,6.9.141,7.105a1.021,1.021,0,0,0,.336.322c.2.106.389.114,2.575.114,2.641,0,2.664,0,2.911-.429.123-.212.125-.286.125-7.4,0-7.161,0-7.185-.126-7.354a1.754,1.754,0,0,0-.3-.3c-.163-.122-.25-.127-2.51-.137C18.056,14.813,16.928,14.833,16.821,14.865ZM9.058,16.6a.688.688,0,0,0-.5.432c-.087.184-.1.868-.1,6.481,0,6.154,0,6.279.122,6.475a1.148,1.148,0,0,0,.322.322c.19.116.313.122,2.591.122s2.4-.006,2.591-.122a1.148,1.148,0,0,0,.322-.322c.119-.2.122-.322.122-6.485,0-6.015,0-6.295-.114-6.5a1.021,1.021,0,0,0-.322-.336c-.2-.116-.332-.123-2.507-.137A13.417,13.417,0,0,0,9.058,16.6Zm-8,5.246a1.017,1.017,0,0,0-.307.322c-.1.188-.11.456-.11,3.911C.643,29.7.646,29.8.768,30c.247.426.27.429,2.911.429,2.186,0,2.377-.008,2.575-.114A1.021,1.021,0,0,0,6.59,30c.119-.2.123-.318.123-3.917,0-3.619,0-3.715-.125-3.924-.248-.426-.266-.429-2.941-.429C1.384,21.728,1.245,21.734,1.06,21.848Z" transform="translate(-0.643 -0.98)" fill="#a9a9a9" fill-rule="evenodd"/>
</svg>
