<svg id="Group_55539" data-name="Group 55539" xmlns="http://www.w3.org/2000/svg" width="37" height="37" viewBox="0 0 37 37">
  <rect id="Rectangle_10725" data-name="Rectangle 10725" width="37" height="37" rx="8" fill="#fff"/>
  <g id="Iconly_Light_Bag" data-name="Iconly/Light/Bag" transform="translate(10.72 10.002)">
    <g id="Bag">
      <path id="Path_33955" d="M11.405,12.9H4.2c-2.647,0-4.677-.973-4.1-4.89L.77,2.7C1.126.748,2.35,0,3.425,0h8.786c1.09,0,2.244.8,2.655,2.7l.672,5.308C16.027,11.485,14.052,12.9,11.405,12.9Z" transform="translate(0 3.989)" fill="none" stroke="#d76e2d" stroke-linecap="round" stroke-linejoin="round" stroke-miterlimit="10" stroke-width="1.2"/>
      <path id="Path_33956" d="M7.475,3.8A3.763,3.763,0,0,0,3.745,0h0A3.7,3.7,0,0,0,1.1,1.106,3.831,3.831,0,0,0,0,3.8H0" transform="translate(4.049)" fill="none" stroke="#d76e2d" stroke-linecap="round" stroke-linejoin="round" stroke-miterlimit="10" stroke-width="1.2"/>
      <path id="Line_192" d="M.474.458H.435" transform="translate(9.88 7.296)" fill="none" stroke="#d76e2d" stroke-linecap="round" stroke-linejoin="round" stroke-miterlimit="10" stroke-width="1.2"/>
      <path id="Line_193" d="M.474.458H.435" transform="translate(4.847 7.296)" fill="none" stroke="#d76e2d" stroke-linecap="round" stroke-linejoin="round" stroke-miterlimit="10" stroke-width="1.2"/>
    </g>
  </g>
</svg>
