<svg xmlns="http://www.w3.org/2000/svg" width="28.784" height="31.384" viewBox="0 0 28.784 31.384">
  <path id="_008-cloud_Traced_" data-name="008-cloud (Traced)" d="M13.683.444A7.7,7.7,0,0,0,9.691,2.48,7.379,7.379,0,0,0,8.043,4.73,7.614,7.614,0,0,0,7.25,7.844V8.2H6.989A7.56,7.56,0,0,0,5.2,8.524a6.3,6.3,0,0,0-4.051,4.241,7.256,7.256,0,0,0-.121,2.858A6.285,6.285,0,0,0,7.258,20.7h.605V23.15l-.365.195A2.86,2.86,0,0,0,6.785,27.9a2.843,2.843,0,0,0,4.353-3.613,2.726,2.726,0,0,0-1.071-.944L9.7,23.15V20.7h4.66v5.521l-.169.072a3.652,3.652,0,0,0-1.037.772,2.667,2.667,0,0,0-.5.882,2.849,2.849,0,0,0,1.885,3.692,3.209,3.209,0,0,0,1.674-.03,2.765,2.765,0,0,0,1.692-1.524,2,2,0,0,0,.245-1,2.817,2.817,0,0,0-.081-.94A2.966,2.966,0,0,0,16.6,26.364l-.339-.166V20.7h4.66v2.484l-.306.14a3.066,3.066,0,0,0-1.527,1.962,2.8,2.8,0,0,0,.785,2.592,2.77,2.77,0,0,0,2.669.76,2.857,2.857,0,0,0,1.808-4.173A3.53,3.53,0,0,0,23.107,23.3l-.283-.116V20.724l.536-.073a7.111,7.111,0,0,0,4.254-2.087,7.008,7.008,0,0,0,1.929-3.407,5.044,5.044,0,0,0,.176-1.625,6.226,6.226,0,0,0-.344-2.352,7.28,7.28,0,0,0-6.457-4.944H22.6l-.109-.4A9.424,9.424,0,0,0,21.3,3.5a9.623,9.623,0,0,0-1.8-1.764,8.139,8.139,0,0,0-3.156-1.3A10.359,10.359,0,0,0,13.683.444ZM9.276,25.074a.958.958,0,0,1,.044,1.589,1.038,1.038,0,0,1-1.075,0,.952.952,0,0,1,.537-1.727A.84.84,0,0,1,9.276,25.074Zm13.081,0a.942.942,0,1,1-1.312.366A.942.942,0,0,1,22.357,25.075ZM15.591,28a1.164,1.164,0,0,1,.425.275.686.686,0,0,1,.231.568.847.847,0,0,1-.428.875,1.033,1.033,0,0,1-1.009-.016,1.2,1.2,0,0,1-.447-.788,1.083,1.083,0,0,1,.549-.837A.7.7,0,0,1,15.591,28Z" transform="translate(-0.935 -0.357)" fill="#a9a9a9" fill-rule="evenodd"/>
</svg>
