<svg xmlns="http://www.w3.org/2000/svg" width="31.395" height="29.654" viewBox="0 0 31.395 29.654">
  <path id="_001-cyber-security_Traced_" data-name="001-cyber-security (Traced)" d="M2.463.514A2.889,2.889,0,0,0,.6,2.06,1.842,1.842,0,0,0,.4,3.206,1.922,1.922,0,0,0,.6,4.359a2.825,2.825,0,0,0,2.97,1.587,2.917,2.917,0,0,0,2.057-1.52l.111-.269H8.9L8.88,5.272,8.863,6.386,8,6.711c-.472.178-1.334.479-1.914.668-1.123.366-1.331.48-1.466.8a16.1,16.1,0,0,0,.058,4.449l.077.531-1.884.019c-1.8.018-1.891.025-2.057.148a.956.956,0,0,0,0,1.619c.189.115.312.122,2.26.122h2.06l.141.536c.077.3.233.826.345,1.18s.205.662.206.685a10.98,10.98,0,0,1-1.332.061c-1.213.019-1.353.032-1.548.146A.936.936,0,0,0,2.9,19.3c.187.114.312.122,1.958.122H6.616l.4.817a25.22,25.22,0,0,0,1.858,3.117l.56.791c.083.117.055.119-1.79.119H5.773l-.162-.322A2.789,2.789,0,0,0,1.553,22.9,2.617,2.617,0,0,0,.6,24.056a1.875,1.875,0,0,0-.2,1.131,1.876,1.876,0,0,0,.222,1.169,2.725,2.725,0,0,0,1.338,1.338,1.88,1.88,0,0,0,1.172.222,1.815,1.815,0,0,0,1.181-.234,2.75,2.75,0,0,0,1.257-1.2l.2-.38,2.648,0,2.648,0,.8.772a21.784,21.784,0,0,0,3.955,3.156c.389.116.647,0,1.645-.757A28.768,28.768,0,0,0,20.358,26.8l.706-.689h5.3l.184.364a2.8,2.8,0,0,0,1.286,1.223A1.876,1.876,0,0,0,29,27.916a1.876,1.876,0,0,0,1.169-.222,2.715,2.715,0,0,0,1.335-1.334,2.039,2.039,0,0,0,.244-1,2.551,2.551,0,0,0-.275-1.43,2.787,2.787,0,0,0-4.955.015l-.162.322H24.488c-1.845,0-1.873,0-1.79-.119l.56-.791a25.22,25.22,0,0,0,1.858-3.117l.4-.817h1.758c1.646,0,1.771-.008,1.958-.122a.936.936,0,0,0-.047-1.622c-.2-.115-.335-.128-1.548-.146a10.981,10.981,0,0,1-1.332-.061c0-.022.093-.33.206-.685s.268-.885.345-1.18L27,15.07h2.06c1.948,0,2.071-.007,2.26-.122a.956.956,0,0,0,0-1.619c-.165-.123-.257-.129-2.059-.148l-1.886-.019.077-.518a16.03,16.03,0,0,0,.063-4.462.963.963,0,0,0-.243-.328,11.28,11.28,0,0,0-1.464-.56c-.718-.24-1.582-.543-1.919-.675l-.613-.239-.017-1.112-.017-1.112H26.4l.111.269a2.928,2.928,0,0,0,1.2,1.222,2.75,2.75,0,0,0,4.059-2.442,2.763,2.763,0,0,0-3.2-2.74,2.917,2.917,0,0,0-2.057,1.52l-.111.269H24.281c-2.075,0-2.123,0-2.387.138-.461.236-.493.357-.493,1.87v1.3l-.628-.315A15.133,15.133,0,0,1,16.86,2.614a1.163,1.163,0,0,0-.568-.391c-.426-.08-.633.008-1.1.468a15,15,0,0,1-3.617,2.452l-.844.428V4.265c0-1.514-.032-1.635-.493-1.871-.264-.135-.311-.138-2.387-.138H5.736l-.111-.269A2.909,2.909,0,0,0,4.437.77,2.619,2.619,0,0,0,2.463.514ZM17.079,8.551a4.126,4.126,0,0,1,2.757,2.718,5.7,5.7,0,0,1,.137,1.023c.035.663.041.687.186.723a1.5,1.5,0,0,1,.442.33c.507.507.5.461.481,3.91-.017,2.944-.02,3-.151,3.247a2.183,2.183,0,0,1-.39.481c-.506.458-.268.434-4.474.434s-3.967.023-4.474-.434a2.183,2.183,0,0,1-.39-.481c-.131-.245-.134-.3-.151-3.247-.02-3.449-.026-3.4.481-3.91a1.5,1.5,0,0,1,.442-.33c.145-.036.151-.06.186-.723a3.672,3.672,0,0,1,1.175-2.711A3.751,3.751,0,0,1,17.079,8.551Zm-1.787,1.8a2.284,2.284,0,0,0-1.37,2.187v.322h4.292V12.6A2.165,2.165,0,0,0,16.05,10.23,2.218,2.218,0,0,0,15.293,10.354Zm-2.474,6.77v2.483h6.5V14.641h-6.5Zm3.653-1.1a1,1,0,0,1,.346.322,2.134,2.134,0,0,1,.014,1.54.884.884,0,0,1-1.547-.018,1.575,1.575,0,0,1-.106-.746c0-.466.021-.586.138-.774A.887.887,0,0,1,16.471,16.027Z" transform="translate(-0.37 -0.423)" fill="#a9a9a9" fill-rule="evenodd"/>
</svg>
