<svg xmlns="http://www.w3.org/2000/svg" width="27.685" height="31.365" viewBox="0 0 27.685 31.365">
  <path id="_007-megaphone_Traced_" data-name="007-megaphone (Traced)" d="M19.034.565c-.448.3-.459.347-.459,1.7,0,1.139.008,1.228.128,1.39a.956.956,0,0,0,1.619.005c.111-.181.122-.31.122-1.4s-.011-1.214-.122-1.4A.938.938,0,0,0,19.034.565ZM12.658.779a2.156,2.156,0,0,0-1.07,1.11,2.109,2.109,0,0,0,.074,1.42c.1.2,1.828,1.968,6.559,6.694l6.424,6.418.363.1a1.86,1.86,0,0,0,2.3-2.469c-.124-.339-.407-.632-6.515-6.74S14.39.925,14.051.8A2.244,2.244,0,0,0,12.658.779Zm11.925,1.6c-.1.064-.648.583-1.215,1.154-.824.83-1.041,1.083-1.082,1.263A.924.924,0,0,0,23.2,5.945a1.063,1.063,0,0,0,.386-.068A26.149,26.149,0,0,0,25.875,3.6a1.036,1.036,0,0,0-.035-.893A.949.949,0,0,0,24.583,2.383ZM11.1,5.58c-.015.049-.1.42-.193.825a19.958,19.958,0,0,1-3.892,7.942l-.366.458,3.324,3.326c1.828,1.829,3.345,3.326,3.369,3.326a4.165,4.165,0,0,0,.521-.385,19.854,19.854,0,0,1,7.977-3.916,5.328,5.328,0,0,0,.7-.171c.024-.021-2.533-2.615-5.684-5.766C13.221,7.581,11.121,5.523,11.1,5.58ZM24.552,7.922a.826.826,0,0,0-.443.782.826.826,0,0,0,.443.782c.193.132.259.138,1.4.138,1.342,0,1.474-.034,1.723-.444a.953.953,0,0,0-.322-1.273c-.181-.111-.311-.122-1.4-.122C24.811,7.784,24.745,7.791,24.552,7.922ZM2.992,18.591C.714,20.88.586,21.021.358,21.485a1.845,1.845,0,0,0-.239,1.2,1.85,1.85,0,0,0,.238,1.2c.222.454.349.6,1.839,2.087a9.981,9.981,0,0,0,1.982,1.787,2.825,2.825,0,0,0,2.524.011c.362-.176.673-.464,2.859-2.64l2.453-2.443L8.765,19.435c-1.787-1.788-3.278-3.251-3.314-3.251S4.309,17.267,2.992,18.591Zm4.28,2.076a.865.865,0,0,1,.358.747c0,.345-.146.546-1.019,1.4-.511.5-.725.668-.915.72A.857.857,0,0,1,4.682,23.1a.817.817,0,0,1-.03-.772,13.956,13.956,0,0,1,1.813-1.787A.993.993,0,0,1,7.272,20.667Zm8.205,1.409c-.32.239-.644.493-.721.564l-.14.129.608.616c.687.7.744.783.744,1.136s-.1.506-.84,1.242l-.664.659-.887-.889a10.234,10.234,0,0,0-.95-.889,35.2,35.2,0,0,0-2.6,2.614c.066.155,4.389,4.273,4.608,4.391a1.5,1.5,0,0,0,.841.138,1.494,1.494,0,0,0,.841-.138,1.811,1.811,0,0,0,1-1.67c0-.674-.161-.977-.886-1.67l-.582-.556.76-.785c.969-1,1.2-1.414,1.246-2.252a2.742,2.742,0,0,0-.4-1.668,8.378,8.378,0,0,0-1.324-1.409A4.169,4.169,0,0,0,15.477,22.076Z" transform="translate(-0.119 -0.423)" fill="#a9a9a9" fill-rule="evenodd"/>
</svg>
