<svg xmlns="http://www.w3.org/2000/svg" width="31.385" height="25.474" viewBox="0 0 31.385 25.474">
  <path id="_003-paint-board-and-brush_Traced_" data-name="003-paint-board-and-brush (Traced)" d="M12.232.616A13.533,13.533,0,0,0,2.069,7.609,13.38,13.38,0,0,0,1.434,19.02c1.439,3.692,4.263,6.337,7.395,6.925a5.6,5.6,0,0,0,3.356-.471,6.2,6.2,0,0,0,3.039-4.022,3.691,3.691,0,0,0,.087-1.663,5.016,5.016,0,0,1,.006-1.393,1.684,1.684,0,0,1,2.2-1.355l.284.046-.479.932a25.275,25.275,0,0,0-1.412,3.2,3.137,3.137,0,0,0-.206,1.206c0,.563,0,.606.18.858a1.308,1.308,0,0,0,.93.542c1.034,0,2.87-1.657,5.6-5.052.511-.636.684-.809.886-.887a6.344,6.344,0,0,0,2.243-1.525,5.488,5.488,0,0,0,1.515-3.541l.039-.612.469-.737c.258-.405.723-1.167,1.033-1.693.523-.888.58-.961.8-1.026a3.838,3.838,0,0,0,1.872-1.719,5.036,5.036,0,0,0,.574-2.43,7.011,7.011,0,0,0-.42-2.758c-.218-.654-.306-.767-.593-.767-.184,0-.271.059-.619.418a5.021,5.021,0,0,1-2.2,1.2,10.681,10.681,0,0,0-1.374.629,4.558,4.558,0,0,0-1.476,1.41A2.563,2.563,0,0,0,24.832,6.1c.023.156.029.269.012.252s-.194-.251-.394-.521A15.273,15.273,0,0,0,22.167,3.49,14.023,14.023,0,0,0,15.819.673,17.978,17.978,0,0,0,12.232.616Zm.552,3.6a1.83,1.83,0,0,1,.022,3.3,1.589,1.589,0,0,1-.788.148A1.251,1.251,0,0,1,11.2,7.49a1.8,1.8,0,0,1-.863-.979,1.772,1.772,0,0,1,.377-1.882A1.8,1.8,0,0,1,12.784,4.214Zm6.825,1.561a1.98,1.98,0,0,1,1.026.958,2,2,0,0,1,.012,1.474,1.88,1.88,0,0,1-1.7,1.087,1.811,1.811,0,0,1-1.688-2.417A1.84,1.84,0,0,1,19.609,5.775Zm6.557,2.368a5.3,5.3,0,0,0,.667.417l.418.22L26.56,9.911a79.259,79.259,0,0,1-6.532,9.123A23.922,23.922,0,0,1,17.6,21.547a20.988,20.988,0,0,1,1.777-3.852c1.029-1.88,2.869-4.805,4.32-6.867.92-1.307,2.1-2.882,2.161-2.882A1.13,1.13,0,0,1,26.166,8.143ZM7.245,8.334a1.812,1.812,0,1,1-2.6,1.743A1.812,1.812,0,0,1,7.245,8.334ZM6.88,15.282a1.818,1.818,0,1,1-2.436,2.435,2.143,2.143,0,0,1-.019-1.586A1.85,1.85,0,0,1,6.88,15.282Z" transform="translate(-0.456 -0.552)" fill="#a9a9a9" fill-rule="evenodd"/>
</svg>
