<svg xmlns="http://www.w3.org/2000/svg" width="31.392" height="26.365" viewBox="0 0 31.392 26.365">
  <path id="_005-programming_Traced_" data-name="005-programming (Traced)" d="M.664,3.5v3.28H32.057V.215H.664Zm6.315,0v.889H5.14V2.606H6.979Zm3.8,0v.889H9V2.606h1.778Zm3.863,0v.889H12.865V2.606h1.778ZM.664,17.567V26.58H32.057V8.554H.664Zm17.49-5.757c.194.039.353.1.353.141,0,.086-2.567,11.639-2.589,11.655a9.75,9.75,0,0,1-1.7-.426c0-.037.579-2.673,1.288-5.859s1.288-5.8,1.288-5.8.228.042.506.1S17.96,11.771,18.154,11.81Zm-5.625,2.079.611.613-1.532,1.533-1.532,1.532L11.609,19.1l1.532,1.533-.628.628-.628.628L9.723,19.728,7.562,17.567l2.145-2.146c1.18-1.18,2.16-2.146,2.178-2.146S12.192,13.551,12.529,13.888Zm10.484,1.533,2.145,2.146L23,19.728l-2.161,2.161-.628-.628-.628-.628L21.112,19.1l1.532-1.533-1.532-1.532L19.581,14.5l.611-.613c.336-.337.626-.614.643-.614S21.833,14.241,23.013,15.421Z" transform="translate(-0.664 -0.215)" fill="#a9a9a9" fill-rule="evenodd"/>
</svg>
