<svg xmlns="http://www.w3.org/2000/svg" width="31.392" height="23.912" viewBox="0 0 31.392 23.912">
  <path id="_009-project_Traced_" data-name="009-project (Traced)" d="M10.533,1.1c-.376.229-.443.426-.444,1.3v.774l-.567.2c-.312.108-.8.309-1.076.445l-.509.248L7.4,3.539c-.624-.61-.882-.729-1.315-.6-.219.064-.494.31-1.712,1.527S2.914,5.957,2.85,6.176c-.127.434-.009.691.605,1.318l.525.537-.128.23a12.851,12.851,0,0,0-.671,1.625l-.087.291H2.316c-.875,0-1.071.067-1.3.444-.115.189-.122.312-.122,2.315s.006,2.126.122,2.315c.23.377.425.443,1.3.444h.779l.087.291a12.851,12.851,0,0,0,.671,1.625l.128.23-.525.537c-.614.627-.732.884-.605,1.318.064.219.31.494,1.527,1.712s1.493,1.463,1.712,1.527c.433.126.691.008,1.315-.6l.534-.522.509.248c.28.136.764.336,1.076.445l.567.2v.774c0,.87.068,1.066.444,1.3.185.113.311.122,1.717.122h1.518V19.321l-.843,0a6.079,6.079,0,0,1-3.886-1.245A6.419,6.419,0,0,1,7.484,9.43,8.03,8.03,0,0,1,9.526,7.455a6.244,6.244,0,0,1,3.4-.908h.843V.98H12.251C10.845.98,10.719.989,10.533,1.1Zm5.074,11.834V24.892h8.017c7.891,0,8.02,0,8.217-.122a1.148,1.148,0,0,0,.322-.322c.12-.2.122-.325.122-8.153V8.341l-3.326-.017c-3.219-.017-3.333-.021-3.539-.142a1.126,1.126,0,0,1-.337-.337c-.121-.206-.125-.32-.142-3.539L24.923.98H15.608ZM26.767,4.015V6.5h5L29.281,4.015c-1.365-1.366-2.49-2.483-2.5-2.483S26.767,2.649,26.767,4.015ZM22.6,6.653a1.091,1.091,0,0,1,.33.327.888.888,0,0,1-.33,1.2c-.2.117-.33.126-2.187.143a16.465,16.465,0,0,1-2.232-.051.876.876,0,0,1-.085-1.686,10.31,10.31,0,0,1,2.269-.074C22.27,6.528,22.395,6.535,22.6,6.653Zm-10.881,1.8a4.67,4.67,0,0,0-3.261,3.037,3.259,3.259,0,0,0-.171,1.441,3.259,3.259,0,0,0,.171,1.441,4.7,4.7,0,0,0,3.368,3.065,6.965,6.965,0,0,0,1.809.054c.136-.036.138-.052.138-1.017,0-.909-.008-.977-.107-.938a2.923,2.923,0,0,1-1.793-.064,3.1,3.1,0,0,1-1.393-1.191,2.848,2.848,0,0,1,0-2.7,3.072,3.072,0,0,1,1.416-1.206,3,3,0,0,1,1.771-.05c.1.04.107-.029.107-.938,0-1.155.089-1.056-.95-1.052A4.442,4.442,0,0,0,11.714,8.458Zm16.4,1.874a.881.881,0,0,1,0,1.529c-.208.122-.311.125-4.952.142-3.317.012-4.815,0-4.991-.051a.884.884,0,0,1-.459-1.44c.291-.336.221-.332,5.408-.318C27.806,10.207,27.905,10.21,28.113,10.332ZM12.373,12.138a.924.924,0,1,0,.951,0A1,1,0,0,0,12.373,12.138Zm15.741,1.873a.881.881,0,0,1,0,1.529c-.208.122-.311.125-4.952.142-3.317.012-4.815,0-4.991-.051a.884.884,0,0,1-.459-1.44c.291-.336.221-.332,5.408-.318C27.806,13.886,27.905,13.889,28.113,14.011Zm0,3.679a.881.881,0,0,1,0,1.529c-.208.122-.311.125-4.952.142-3.317.012-4.815,0-4.991-.051a.884.884,0,0,1-.459-1.44c.291-.336.221-.332,5.408-.318C27.806,17.565,27.905,17.567,28.113,17.69Z" transform="translate(-0.893 -0.98)" fill="#a9a9a9" fill-rule="evenodd"/>
</svg>
