<svg xmlns="http://www.w3.org/2000/svg" width="31.392" height="29.549" viewBox="0 0 31.392 29.549">
  <path id="_004-video-player_Traced_" data-name="004-video-player (Traced)" d="M2.7.482A2.585,2.585,0,0,0,.78,2.182C.668,2.51.664,2.91.664,15.193S.668,27.876.78,28.2a2.553,2.553,0,0,0,1.966,1.7c.449.085,26.779.085,27.228,0a2.553,2.553,0,0,0,1.966-1.7c.113-.328.116-.728.116-13.011s0-12.683-.116-13.011a2.553,2.553,0,0,0-1.966-1.7C29.57.4,3.088.405,2.7.482Zm4.342,4.9V7.161H3.852V3.6H7.041Zm7.725,0V7.161H10.29V3.6h4.476Zm7.664,0V7.161H17.954V3.6H22.43Zm6.438,0V7.161H25.68V3.6h3.188ZM14.954,11.594c.895.543,4.282,2.782,4.459,2.947a.855.855,0,0,1,0,1.3c-.173.164-3.5,2.36-4.459,2.945-.548.334-1.015.256-1.206-.2a61.1,61.1,0,0,1,0-6.794C13.939,11.34,14.405,11.261,14.954,11.594ZM7.041,25v1.778H3.852V23.225H7.041Zm7.725,0v1.778H10.29V23.225h4.476Zm7.664,0v1.778H17.954V23.225H22.43Zm6.438,0v1.778H25.68V23.225h3.188Z" transform="translate(-0.664 -0.423)" fill="#a9a9a9" fill-rule="evenodd"/>
</svg>
