<svg xmlns="http://www.w3.org/2000/svg" width="31.398" height="31.361" viewBox="0 0 31.398 31.361">
  <path id="_002-whistle_Traced_" data-name="002-whistle (Traced)" d="M15.581.2a1.148,1.148,0,0,0-.322.322c-.113.185-.122.311-.122,1.708,0,1.464,0,1.515.138,1.711a.912.912,0,0,0,1.563,0c.134-.2.138-.248.138-1.711,0-1.4-.009-1.523-.122-1.708A.953.953,0,0,0,15.581.2ZM9.215,3.867A.891.891,0,0,0,8.831,5.09c.136.275.207.327,1.37,1.006a10.685,10.685,0,0,0,1.452.756,1.045,1.045,0,0,0,.894-.378.917.917,0,0,0-.094-1.2,14.463,14.463,0,0,0-1.3-.817c-.945-.548-1.185-.662-1.441-.683A.713.713,0,0,0,9.215,3.867ZM22.132,3.8c-.25.1-2.328,1.338-2.471,1.473a.917.917,0,0,0-.094,1.2,1.045,1.045,0,0,0,.89.379A25.723,25.723,0,0,0,23.1,5.389a1.216,1.216,0,0,0,.2-.335.925.925,0,0,0-.448-1.209A1.168,1.168,0,0,0,22.132,3.8ZM3,7.529A3.5,3.5,0,0,0,.454,9.98a3.437,3.437,0,0,0,1.717,3.871l.437.225-.328.457A10.824,10.824,0,0,0,1.164,24.811a10.3,10.3,0,0,0,2.293,3.444A10.76,10.76,0,0,0,9.067,31.3a8.285,8.285,0,0,0,2.085.137,8.05,8.05,0,0,0,2.069-.137,10.892,10.892,0,0,0,7.647-5.974,10.3,10.3,0,0,0,.825-2.423,13.9,13.9,0,0,0,.249-2.226c0-.357,0-.359.2-.393.11-.019,2.089-.268,4.4-.554s4.308-.537,4.44-.558a.963.963,0,0,0,.491-.272l.251-.234.016-4.036c.018-4.577.045-4.326-.477-4.6L31,9.886H16.984l-.019,1.579c-.017,1.381-.033,1.6-.129,1.781a.907.907,0,0,1-1.557,0c-.1-.177-.113-.4-.129-1.781l-.019-1.579H12.963a14.339,14.339,0,0,0-5.169.553,2.21,2.21,0,0,1-.628.151.319.319,0,0,1-.061-.22,3.379,3.379,0,0,0-.765-1.71A3.278,3.278,0,0,0,4.546,7.552,3.13,3.13,0,0,0,3,7.529ZM4.5,9.546a1.493,1.493,0,0,1,.238,2.423,1.311,1.311,0,0,1-.987.369,1.518,1.518,0,0,1-1.414-.919,1.9,1.9,0,0,1-.09-.591,1.487,1.487,0,0,1,.981-1.4A1.688,1.688,0,0,1,4.5,9.546Zm7.695,5.437A5.869,5.869,0,0,1,16.657,18.9a5.2,5.2,0,0,1,.27,1.87A5.783,5.783,0,0,1,12.7,26.3a4.059,4.059,0,0,1-1.55.165,4.659,4.659,0,0,1-2.545-.54A5.917,5.917,0,0,1,5.5,22.161a4.729,4.729,0,0,1-.13-1.484,4.059,4.059,0,0,1,.166-1.554A5.833,5.833,0,0,1,12.194,14.983Zm-2.053,1.805a3.773,3.773,0,0,0-1.816,1.067A3.251,3.251,0,0,0,7.541,18.9a4.019,4.019,0,0,0,5.388,5.388,3.251,3.251,0,0,0,1.044-.783,3.689,3.689,0,0,0,1.074-1.877,5.046,5.046,0,0,0-.084-2.177,4.2,4.2,0,0,0-2.586-2.587A5.5,5.5,0,0,0,10.141,16.788Z" transform="translate(-0.348 -0.073)" fill="#a9a9a9" fill-rule="evenodd"/>
</svg>
