<svg id="Iconly_Bold_Bag" data-name="Iconly/Bold/Bag" xmlns="http://www.w3.org/2000/svg" width="17.892" height="19.878" viewBox="0 0 17.892 19.878">
  <g id="Bag" transform="translate(0 0)">
    <path id="Combined_Shape" data-name="Combined Shape" d="M13.08,19.878H4.84c-1.869,0-3.156-.435-3.934-1.33-.814-.936-1.075-2.349-.8-4.32L.879,8.07a4.057,4.057,0,0,1,1.186-2.4,2.72,2.72,0,0,1,1.845-.7h.077a.675.675,0,0,1,0-.225,4.97,4.97,0,0,1,9.93,0H13.89a.514.514,0,0,1-.044.225H14a2.651,2.651,0,0,1,1.816.726A4.362,4.362,0,0,1,17.041,8.07l.765,6.157a5.1,5.1,0,0,1-.9,4.2A4.884,4.884,0,0,1,13.08,19.878Zm-1.266-11.6a.9.9,0,1,0,.878.9A.892.892,0,0,0,11.814,8.279Zm-5.753,0a.9.9,0,1,0,.878.9A.892.892,0,0,0,6.061,8.279ZM8.912,1.294A3.461,3.461,0,0,0,5.45,4.745a.629.629,0,0,1,0,.225h6.968a.649.649,0,0,1-.043-.225A3.461,3.461,0,0,0,8.912,1.294Z" transform="translate(0 0)" fill="#a9a9a9"/>
  </g>
</svg>
