<svg id="Iconly_Bold_Chat" data-name="Iconly/Bold/Chat" xmlns="http://www.w3.org/2000/svg" width="19.878" height="19.878" viewBox="0 0 19.878 19.878">
  <g id="Chat">
    <path id="Chat-2" data-name="Chat" d="M9.939,19.878a9.894,9.894,0,0,1-4.89-1.293,2.185,2.185,0,0,0-1.1-.422,1.206,1.206,0,0,0-.38.063l-2.008.6a.749.749,0,0,1-.225.035.616.616,0,0,1-.5-.238.643.643,0,0,1-.093-.574l.666-2.23a1.039,1.039,0,0,0-.07-.9A10.5,10.5,0,0,1,0,9.954a10.1,10.1,0,0,1,2.814-6.94A9.829,9.829,0,0,1,9.959,0a9.8,9.8,0,0,1,7.077,2.976,10,10,0,0,1,2.087,3.163,9.829,9.829,0,0,1,.756,3.785,10.077,10.077,0,0,1-.86,4.146A9.54,9.54,0,0,1,16.757,17.2,10.182,10.182,0,0,1,9.939,19.878ZM14.5,8.69a1.274,1.274,0,1,0,1.272,1.274A1.274,1.274,0,0,0,14.5,8.69Zm-4.6,0A1.26,1.26,0,0,0,8.647,9.954,1.272,1.272,0,1,0,9.919,8.69H9.9Zm-4.563,0A1.274,1.274,0,1,0,6.61,9.964,1.275,1.275,0,0,0,5.338,8.69Z" fill="#a9a9a9"/>
  </g>
</svg>
