<svg id="Iconly_Bold_Graph" data-name="Iconly/Bold/Graph" xmlns="http://www.w3.org/2000/svg" width="19.878" height="19.878" viewBox="0 0 19.878 19.878">
  <g id="Graph" transform="translate(0 0)">
    <path id="Graph-2" data-name="Graph" d="M1.082,15.419A8.153,8.153,0,0,1,.065,12.3,5.894,5.894,0,0,1,0,11.322,8.641,8.641,0,0,1,6.914,2.941,1.093,1.093,0,0,1,8.1,3.533a1.1,1.1,0,0,1,.126.256c.135,2.084.279,4.133.414,6.182a1.839,1.839,0,0,0,.1.626,1.017,1.017,0,0,0,1,.627l6.615-.423.046.017a1.078,1.078,0,0,1,.751.32,1.042,1.042,0,0,1,.3.749,8.618,8.618,0,0,1-6.836,7.79,8.893,8.893,0,0,1-1.877.2A8.76,8.76,0,0,1,1.082,15.419Zm9.724-6.384a.874.874,0,0,1-.292-.654L10,.884V.76a.788.788,0,0,1,.263-.552A.818.818,0,0,1,10.847,0a9.365,9.365,0,0,1,9.028,7.841.3.3,0,0,1,0,.08.781.781,0,0,1-.2.572.808.808,0,0,1-.552.267l-7.632.5q-.041,0-.081,0A.909.909,0,0,1,10.806,9.035Z" fill="#a9a9a9"/>
  </g>
</svg>
