<svg xmlns="http://www.w3.org/2000/svg" width="20.001" height="20" viewBox="0 0 20.001 20">
  <g id="Group_55373" data-name="Group 55373" transform="translate(19102 8509)">
    <path id="Fill_1" data-name="Fill 1" d="M5.92,0H2.54A2.555,2.555,0,0,0,0,2.561V5.97A2.548,2.548,0,0,0,2.54,8.53H5.92A2.542,2.542,0,0,0,8.46,5.97V2.561A2.548,2.548,0,0,0,5.92,0" transform="translate(-19102 -8509)" fill="#d76e2d"/>
    <path id="Fill_4" data-name="Fill 4" d="M5.92,0H2.54A2.549,2.549,0,0,0,0,2.561V5.97A2.554,2.554,0,0,0,2.54,8.53H5.92A2.548,2.548,0,0,0,8.46,5.97V2.561A2.542,2.542,0,0,0,5.92,0" transform="translate(-19102 -8497.53)" fill="#d76e2d"/>
    <path id="Fill_7" data-name="Fill 7" d="M5.92,0H2.54A2.548,2.548,0,0,0,0,2.561V5.97A2.542,2.542,0,0,0,2.54,8.53H5.92A2.548,2.548,0,0,0,8.46,5.97V2.561A2.555,2.555,0,0,0,5.92,0" transform="translate(-19090.459 -8509)" fill="#d76e2d"/>
    <path id="Fill_9" data-name="Fill 9" d="M5.92,0H2.54A2.542,2.542,0,0,0,0,2.561V5.97A2.548,2.548,0,0,0,2.54,8.53H5.92A2.554,2.554,0,0,0,8.46,5.97V2.561A2.549,2.549,0,0,0,5.92,0" transform="translate(-19090.459 -8497.53)" fill="#83c982"/>
  </g>
</svg>
