<svg id="Iconly_Bold_Home" data-name="Iconly/Bold/Home" xmlns="http://www.w3.org/2000/svg" width="18.884" height="19.878" viewBox="0 0 18.884 19.878">
  <g id="Home">
    <path id="Home-2" data-name="Home" d="M6.594,18.659V15.62a1.41,1.41,0,0,1,1.415-1.4h2.857a1.42,1.42,0,0,1,1,.411,1.4,1.4,0,0,1,.414.993v3.039a1.206,1.206,0,0,0,.354.862,1.224,1.224,0,0,0,.865.358h1.949a3.439,3.439,0,0,0,2.428-.993,3.389,3.389,0,0,0,1.007-2.408V7.819a2.458,2.458,0,0,0-.89-1.891L11.364.672A3.079,3.079,0,0,0,7.44.742L.961,5.928A2.459,2.459,0,0,0,0,7.819v8.649a3.423,3.423,0,0,0,3.435,3.41h1.9a1.224,1.224,0,0,0,1.228-1.21Z" transform="translate(0 0)" fill="#a9a9a9"/>
  </g>
</svg>
