<svg id="Iconly_Bold_Notification" data-name="Iconly/Bold/Notification" xmlns="http://www.w3.org/2000/svg" width="17.116" height="20.092" viewBox="0 0 17.116 20.092">
  <g id="Notification">
    <path id="Notification-2" data-name="Notification" d="M8.037,20.059a3.648,3.648,0,0,1-1.725-.736,1.558,1.558,0,0,1-.7-1.178c0-.506.465-.738.9-.837a26.188,26.188,0,0,1,4.074,0c.43.1.9.331.9.837a1.56,1.56,0,0,1-.7,1.179,3.664,3.664,0,0,1-1.724.735,4.031,4.031,0,0,1-.515.034A3.7,3.7,0,0,1,8.037,20.059ZM3.789,15.82A4.57,4.57,0,0,1,.87,14.4,3.627,3.627,0,0,1,0,12.011,3.379,3.379,0,0,1,.736,9.69a3.81,3.81,0,0,0,1.07-2.863V6.4A5.643,5.643,0,0,1,3.1,2.524,7.127,7.127,0,0,1,8.513,0H8.6a7.1,7.1,0,0,1,5.5,2.637,5.563,5.563,0,0,1,1.2,3.763v.428A3.9,3.9,0,0,0,16.38,9.69a3.374,3.374,0,0,1,.736,2.321,3.626,3.626,0,0,1-.869,2.39,4.574,4.574,0,0,1-2.92,1.42c-1.582.134-3.165.248-4.769.248A42.062,42.062,0,0,1,3.789,15.82Z" fill="#a9a9a9"/>
  </g>
</svg>
