<svg id="Iconly_Bold_Wallet" data-name="Iconly/Bold/Wallet" xmlns="http://www.w3.org/2000/svg" width="19.878" height="17.89" viewBox="0 0 19.878 17.89">
  <g id="Wallet" transform="translate(0)">
    <path id="Wallet-2" data-name="Wallet" d="M14.427,17.89H5.451a5.606,5.606,0,0,1-4.011-1.4A5.29,5.29,0,0,1,0,12.584V5.306A5.29,5.29,0,0,1,1.44,1.4,5.606,5.606,0,0,1,5.451,0h8.975a5.584,5.584,0,0,1,4.011,1.408,5.359,5.359,0,0,1,1.44,3.941H15.673v.034a3.561,3.561,0,0,0-2.5,1.011,3.379,3.379,0,0,0-1.036,2.434,3.5,3.5,0,0,0,3.534,3.446h4.205v.309a5.29,5.29,0,0,1-1.44,3.9A5.606,5.606,0,0,1,14.427,17.89ZM4.709,3.868a.753.753,0,0,0-.759.732.761.761,0,0,0,.759.75h5.61a.741.741,0,1,0,0-1.481Zm14.427,6.924H15.723a2.082,2.082,0,0,1-2.047-1.584,1.965,1.965,0,0,1,.43-1.642,2.076,2.076,0,0,1,1.566-.735h3.463a.734.734,0,0,1,.742.724v2.515A.745.745,0,0,1,19.135,10.792Zm-3.322-2.8a.753.753,0,0,0-.527.211.727.727,0,0,0-.224.521.762.762,0,0,0,.76.75h.326a.741.741,0,1,0,0-1.481h-.336Z" transform="translate(0)" fill="#a9a9a9"/>
  </g>
</svg>
