<svg xmlns="http://www.w3.org/2000/svg" xmlns:xlink="http://www.w3.org/1999/xlink" width="1920" height="1081" viewBox="0 0 1920 1081">
  <defs>
    <clipPath id="clip-path">
      <rect id="Rectangle_4" data-name="Rectangle 4" width="1920" height="1080"/>
    </clipPath>
    <clipPath id="clip-learning-teaching-black">
      <rect width="1920" height="1081"/>
    </clipPath>
  </defs>
  <g id="learning-teaching-black" clip-path="url(#clip-learning-teaching-black)">
    <g id="Web_1920_1" data-name="Web 1920 – 1" clip-path="url(#clip-path)">
      <g id="Group_55356" data-name="Group 55356" transform="translate(79.914 -752.719)">
        <path id="Path_321" data-name="Path 321" d="M351.388,1244.57s314.675,168.772,565.991-69.748,455.7-435.582,909.7-420.486S2346.33,597.49,2346.33,597.49L2438.55-4.965-2.146,1049.32Z" transform="matrix(-0.927, -0.375, 0.375, -0.927, 1860.098, 2326.891)" fill="#83c982" opacity="0.25"/>
        <path id="Path_320" data-name="Path 320" d="M249.412,1151.39s323.682,95.624,607.316-86.53S1328.42,556.021,1763.3,619.5s481.03-115.272,481.03-115.272L2275.35-5.057-2.043,915.071Z" transform="matrix(0.927, 0.375, -0.375, 0.927, 108.158, 435.851)" fill="#83c982" opacity="0.35"/>
        <path id="Path_261" data-name="Path 261" d="M249.412,1151.39s323.682,95.624,607.316-86.53S1328.42,556.021,1763.3,619.5s481.03-115.272,481.03-115.272L2275.35-5.057-2.043,915.071Z" transform="matrix(0.927, 0.375, -0.375, 0.927, 27.158, 400.851)" fill="#83c982"/>
        <path id="Path_319" data-name="Path 319" d="M351.388,1244.57s314.675,168.772,565.991-69.748,455.7-435.582,909.7-420.486S2346.33,597.49,2346.33,597.49L2438.55-4.965-2.146,1049.32Z" transform="matrix(-0.927, -0.375, 0.375, -0.927, 1789.932, 2355.891)" fill="#83c982"/>
      </g>
      <g id="Group_55625" data-name="Group 55625" transform="translate(-1 -973)">
        <g id="Group_55624" data-name="Group 55624">
          <path id="Path_317" data-name="Path 317" d="M286.231,3.688a1.582,1.582,0,0,1,2.264,0L290.759,6a1.652,1.652,0,0,1,0,2.306l-1.252,1.239-4.53-4.615Zm-2.16,2.133-8.747,8.646a1.652,1.652,0,0,0-.412.731l-1.261,4.79a.645.645,0,0,0,.783.8l4.7-1.285a1.611,1.611,0,0,0,.716-.421l8.748-8.646Z" transform="translate(621.08 1503.527) rotate(4.992)" fill="#fff" stroke="#000" stroke-width="1" fill-rule="evenodd"/>
        </g>
        <path id="Path_318" data-name="Path 318" d="M4.878,30.375c76.737-18.877,203.871-18.3,258.5-8.132" transform="translate(621.08 1503.527) rotate(4.992)" fill="none" stroke="#fff" stroke-linecap="round" stroke-linejoin="round" stroke-width="8.8"/>
        <g id="Group_553" data-name="Group 553" transform="translate(198.938 1290.943)" opacity="0.55">
          <path id="Path_310" data-name="Path 310" d="M70.213,211.735a2.893,2.893,0,1,1,.775,2.073,2.893,2.893,0,0,1-.775-2.073Zm-1.5-18.935a3.5,3.5,0,1,1,0,.006ZM65.87,148.406a4.431,4.431,0,1,1,4.215,5.156,4.729,4.729,0,0,1-4.214-5.15Zm-2.826-18.325a4.934,4.934,0,1,1,0,.012Zm1.627,41.23a3.369,3.369,0,1,1,0,.016Zm-6.224,30.638a3.569,3.569,0,1,1,1.094,2.293,3.569,3.569,0,0,1-1.094-2.293Zm-1.815-20.126a4.039,4.039,0,1,1,3.9,3.96,3.931,3.931,0,0,1-3.9-3.956Zm-4.874-19.9a3.888,3.888,0,1,1,.242,1.5,3.888,3.888,0,0,1-.242-1.5ZM48.671,138.9a3.889,3.889,0,1,1,1.043,2.788A3.889,3.889,0,0,1,48.671,138.9ZM35.02,175.969a4.9,4.9,0,0,1,4.866-4.919,5.193,5.193,0,1,1-4.866,4.919ZM33.97,195a4.146,4.146,0,1,1,1.225,2.761A4.146,4.146,0,0,1,33.97,195Zm-3.611-42.7a3.861,3.861,0,1,1,1.035,2.768,3.861,3.861,0,0,1-1.035-2.768ZM19.21,189.323a4.469,4.469,0,1,1,.28,1.723,4.469,4.469,0,0,1-.28-1.723Zm.152-19.6a4.474,4.474,0,1,1,1.2,3.206,4.474,4.474,0,0,1-1.2-3.206ZM1.782,181.9a3.25,3.25,0,1,1,.871,2.329,3.25,3.25,0,0,1-.871-2.329Z" transform="translate(0 19.123)"/>
          <path id="Path_311" data-name="Path 311" d="M205.049,18.431A20.922,20.922,0,0,1,205.133,22l-19.31,19.307a20.774,20.774,0,0,1-3.564-.085Zm-1.509-5.792a20.686,20.686,0,0,1,.934,2.715L179.183,40.646a20.548,20.548,0,0,1-2.717-.933Zm.838,13.76a20.664,20.664,0,0,1-14.152,14.153ZM200.841,8.043a20.575,20.575,0,0,1,1.478,2.171L174.042,38.49a20.516,20.516,0,0,1-2.172-1.477Zm-1.7-1.938-29.2,29.2a20.648,20.648,0,1,1,29.2-29.2Z" transform="translate(24.761)"/>
          <path id="Path_312" data-name="Path 312" d="M1127.14,171.705a3.892,3.892,0,0,0-1.118-4.368,7.8,7.8,0,0,1,7.85-13.191,15.6,15.6,0,0,0,15.6-26.476,3.891,3.891,0,0,0-4.955,6,7.8,7.8,0,0,1-7.85,13.2,15.6,15.6,0,0,0-15.6,26.472,3.869,3.869,0,0,0,5.058-.127,3.952,3.952,0,0,0,1.015-1.508Z" transform="translate(255.331 -104.287)"/>
          <path id="Path_313" data-name="Path 313" d="M1165.34,343.23c2.087-4.415,3.5-8.217,3.216-9.352s-2.271.4-7.089,6.587c-2.939,3.582-6.329,8.024-9,11.532l-3.527,4.654c.565-1.275,1.118-2.551,1.683-3.829,1.637-3.741,3.262-7.5,4.83-11.314s3.078-7.676,4.438-11.678c.669-2,1.314-4.043,1.844-6.175.265-1.067.507-2.16.715-3.3l.069-.46.115-.731c.058-.495.127-1,.161-1.5a17.652,17.652,0,0,0,0-2.922,10.556,10.556,0,0,0-.565-2.6,7.723,7.723,0,0,0-1.107-2.1,6.742,6.742,0,0,0-1.683-1.6c-.161-.106-.334-.214-.507-.318l-.265-.131-.069-.033c-.035,0-.046-.017-.069-.024l-.138-.061a5.538,5.538,0,0,0-1.141-.35,6.722,6.722,0,0,0-4.473.787,16.467,16.467,0,0,0-4.334,3.644c-.173.183-.334.376-.5.568l-.254.288-.2.236-.519.656c-.357.436-.692.873-1.014,1.31-.657.871-1.268,1.744-1.879,2.621-1.2,1.751-2.329,3.51-3.424,5.277-2.19,3.538-4.254,7.092-6.271,10.658-3.424,6.028-6.709,12.088-10.029,18.066.865-2.527,1.729-5.063,2.582-7.628.53-1.635,1.06-3.285,1.579-4.949l.576-1.907c.231-.814.461-1.627.68-2.439.438-1.622.83-3.229,1.118-4.759a25.129,25.129,0,0,0,.449-4.157,11.331,11.331,0,0,0-.115-1.653,8.87,8.87,0,0,0-.311-1.336,6.251,6.251,0,0,0-1.061-1.994,5.12,5.12,0,0,0-.83-.827,5.449,5.449,0,0,0-1.291-.776,6.457,6.457,0,0,0-1.51-.413,6.2,6.2,0,0,0-1.314-.044,6.745,6.745,0,0,0-2.328.589,8.744,8.744,0,0,0-1.176.655,11.43,11.43,0,0,0-1.233.957,18.522,18.522,0,0,0-2.571,2.941,51.661,51.661,0,0,0-3.9,6.542l-.461.891-.415.836-.461.938-.876,1.87c-1.164,2.49-2.248,4.989-3.308,7.481s-2.075,4.98-3.089,7.47l-1.764,4.293a.079.079,0,0,1-.023.047c-.011-.01,0-.035,0-.051l.346-2.009c.426-2.386.853-4.784,1.256-7.207q.3-1.815.576-3.651l.208-1.391c.081-.513.161-1.132.242-1.728.15-1.194.288-2.385.392-3.546s.161-2.3.173-3.36c.011-.278,0-.524-.012-.773l-.023-.753c-.023-.24-.046-.458-.069-.688l-.034-.341-.023-.171-.035-.15a9.8,9.8,0,0,0-.254-1.149,4.882,4.882,0,0,0-.173-.511l-.184-.452a6.033,6.033,0,0,0-.922-1.441l-.265-.286-.288-.262a3.355,3.355,0,0,0-.715-.468c-.277-.131-.6-.326-.98-.488a6.688,6.688,0,0,0-1.037-.228,5.2,5.2,0,0,0-1.625.083,5.981,5.981,0,0,0-1.6.6,8.34,8.34,0,0,0-1.787,1.334,17.919,17.919,0,0,0-1.9,2.188,56.52,56.52,0,0,0-3.723,5.839l-.888,1.579-.6,1.1-.876,1.633c-.588,1.088-1.153,2.176-1.717,3.263q-1.678,3.266-3.3,6.526c-.646,1.3-1.3,2.592-1.948,3.884q.968-3.782,1.994-7.564,1.868-6.878,3.839-13.749a2.357,2.357,0,0,0-.15-.746c-2.294-5.391-6.029-3.64-7.724-2.137a.666.666,0,0,0-.23.2.82.82,0,0,0-.127.279q-1.971,6.922-3.862,13.879c-1.268,4.707-2.5,9.426-3.643,14.213-.565,2.4-1.107,4.8-1.591,7.27-.242,1.233-.473,2.483-.657,3.783-.092.648-.184,1.318-.254,2.012a19.491,19.491,0,0,0-.115,2.319c0,.249.011.468.035.742a8.848,8.848,0,0,0,.127.953,5.778,5.778,0,0,0,.161.632c.035.131.081.263.127.393l.081.191c.035.086.081.188.127.278.092.188.2.371.3.546l.092.131.138.187a2.86,2.86,0,0,0,.311.362,4.322,4.322,0,0,0,.334.334,1.4,1.4,0,0,0,.2.163c.1.063.161.125.242.182a5.045,5.045,0,0,0,1.107.573,4.758,4.758,0,0,0,1.222.255,5.342,5.342,0,0,0,.576,0,4.324,4.324,0,0,0,.473-.051l.242-.04c.081-.015.15-.031.208-.046.115-.03.23-.065.346-.1a4.161,4.161,0,0,0,.588-.233,6.1,6.1,0,0,0,1.3-.835,10.333,10.333,0,0,0,1.164-1.179,20.424,20.424,0,0,0,1.36-1.856c.392-.58.738-1.145,1.072-1.7,1.337-2.227,2.479-4.409,3.62-6.6,2.259-4.364,4.392-8.715,6.548-13.028q1.608-3.234,3.251-6.422.813-1.591,1.66-3.162l1.107-2.05-.646,4q-.588,3.538-1.233,7.124l-.9,5.17c-.4,2.382-.784,4.771-1.107,7.077a58.944,58.944,0,0,0-.623,6.98V371l.023.316.046.631a1.233,1.233,0,0,0,.035.289l.035.269c.034.175.057.367.092.53l.115.459.046.229.069.2.138.393a5.723,5.723,0,0,0,1.383,2.1,3.879,3.879,0,0,0,.45.367c.173.107.357.2.576.315s.5.272.876.435a8.735,8.735,0,0,0,1.026.209,4.784,4.784,0,0,0,1.268-.042,5.348,5.348,0,0,0,1.1-.305,6.726,6.726,0,0,0,2.49-1.835,14.76,14.76,0,0,0,1.487-2.03c.53-.825,1.049-1.791,1.579-2.837,1.072-2.1,2.144-4.5,3.182-6.926l1.545-3.684,1.3-3.146,1.522-3.718q1.5-3.709,3.055-7.369c1.026-2.438,2.075-4.85,3.182-7.208l.83-1.758.449-.929-.161.533c-.484,1.587-1,3.179-1.533,4.776-1.049,3.192-2.156,6.4-3.262,9.622s-2.213,6.475-3.251,9.818c-.507,1.677-1.014,3.371-1.452,5.175-.219.906-.427,1.834-.576,2.882-.092.576-.15,1.155-.185,1.737-.011.372-.011.746.012,1.117a7.135,7.135,0,0,0,.288,1.637,2.02,2.02,0,0,0,.1.279l.115.3a2.632,2.632,0,0,0,.15.334c.058.109.115.211.2.347a5.279,5.279,0,0,0,1.418,1.523,4.969,4.969,0,0,0,1.072.568,4.963,4.963,0,0,0,1.683.33c.161,0,.323,0,.484-.016l.242-.027.2-.032c.127-.022.265-.05.392-.08a6.017,6.017,0,0,0,1.9-.85l.288-.2.254-.191c.173-.131.3-.243.438-.367a14.2,14.2,0,0,0,1.28-1.3c.357-.408.668-.8.968-1.19,1.176-1.549,2.156-3.041,3.1-4.54,1.879-2.99,3.6-5.975,5.28-8.963,3.873-6.862,7.562-13.734,11.377-20.49,1.9-3.375,3.827-6.724,5.822-9.989,1-1.631,2.006-3.241,3.055-4.807s2.1-3.087,3.193-4.482l.692-.86-.115.673q-.536,2.645-1.326,5.221c-1.083,3.548-2.432,7.133-3.839,10.7s-2.928,7.134-4.473,10.7l-4.692,10.726c-1.579,3.6-3.147,7.207-4.623,10.972-.369.945-.738,1.9-1.084,2.9s-.669,2.014-.968,3.174a14.628,14.628,0,0,0-.38,1.992,7.746,7.746,0,0,0-.069,1.462,4.282,4.282,0,0,0,.046.512c.012.078.023.2.046.3l.069.323c.023.11.069.262.1.393l.058.2a1.652,1.652,0,0,0,.092.219,3.885,3.885,0,0,0,.219.48q.052.109.138.263c.057.1.115.184.173.274a4.983,4.983,0,0,0,1.671,1.518,4.654,4.654,0,0,0,.726.319c.115.044.242.083.369.118s.231.053.346.075a5.634,5.634,0,0,0,.68.081,5.523,5.523,0,0,0,.553-.009l.277-.024c.092-.01.173-.022.242-.033.127-.025.265-.054.4-.086l.208-.053.15-.05.311-.107c.092-.038.208-.081.265-.113.161-.069.311-.144.461-.219l.357-.207a9.485,9.485,0,0,0,1.072-.756c.15-.12.277-.234.4-.347s.254-.224.38-.334a32.433,32.433,0,0,0,2.34-2.511c.68-.817,1.326-1.63,1.948-2.443,1.245-1.624,2.409-3.254,3.551-4.89l1.21-1.751.991-1.452,1.937-2.913,1.879-3.307c1.118-1.983,2.571-4.621,3.988-7.245,2.836-5.242,5.487-10.417,5.153-10.033" transform="translate(252.119 62.745)"/>
          <path id="Path_314" data-name="Path 314" d="M100.3,372.2a5.288,5.288,0,1,1-10.576,0Zm21.152,0a5.288,5.288,0,1,1-10.576,0Zm-37.017-5.289a5.287,5.287,0,0,1,5.288,5.29H79.143a5.287,5.287,0,0,1,5.289-5.288Zm21.152,0a5.286,5.286,0,0,1,5.288,5.288H100.3a5.287,5.287,0,0,1,5.288-5.288Zm-5.287-5.288a5.288,5.288,0,1,1-10.576,0Zm21.152,0a5.288,5.288,0,1,1-10.576,0Zm-37.017-5.288a5.287,5.287,0,0,1,5.288,5.289H79.143a5.287,5.287,0,0,1,5.289-5.288Zm21.152,0a5.286,5.286,0,0,1,5.288,5.288H100.3a5.287,5.287,0,0,1,5.288-5.288ZM100.3,351.05a5.288,5.288,0,1,1-10.576,0Zm21.152,0a5.288,5.288,0,1,1-10.576,0Zm-37.017-5.29a5.288,5.288,0,0,1,5.288,5.29H79.143a5.29,5.29,0,0,1,5.288-5.29Zm21.152,0a5.288,5.288,0,0,1,5.288,5.288H100.3a5.289,5.289,0,0,1,5.286-5.288Zm-5.287-5.288a5.288,5.288,0,1,1-10.576,0Zm21.152,0a5.288,5.288,0,1,1-10.576,0Zm-37.017-5.288a5.289,5.289,0,0,1,5.288,5.287H79.143a5.289,5.289,0,0,1,5.287-5.288Zm21.152,0a5.288,5.288,0,0,1,5.288,5.288H100.3a5.289,5.289,0,0,1,5.286-5.288Z" transform="translate(11.817 51.189)"/>
          <path id="Path_315" data-name="Path 315" d="M1305.31,219.869a5.286,5.286,0,0,1-10.571,0Zm21.153,0a5.286,5.286,0,0,1-10.571,0Zm-37.015-5.289a5.328,5.328,0,0,1,2.029.4,5.442,5.442,0,0,1,1.718,1.147,5.365,5.365,0,0,1,1.141,1.715,5.3,5.3,0,0,1,.4,2.024H1284.16a5.3,5.3,0,0,1,5.291-5.288Zm21.153,0a5.3,5.3,0,0,1,5.291,5.288H1305.31A5.3,5.3,0,0,1,1310.6,214.58Zm-5.291-5.288a5.286,5.286,0,0,1-10.571,0Zm21.153,0a5.286,5.286,0,0,1-10.571,0ZM1289.45,204a5.28,5.28,0,0,1,5.291,5.288H1284.16a5.3,5.3,0,0,1,5.291-5.288Zm21.153,0a5.3,5.3,0,0,1,5.291,5.288h-10.582A5.3,5.3,0,0,1,1310.6,204Zm-5.291-5.288a5.286,5.286,0,0,1-10.571,0Zm21.153,0a5.286,5.286,0,0,1-10.571,0Zm-37.015-5.29a5.329,5.329,0,0,1,2.029.4,5.246,5.246,0,0,1,2.859,2.862,5.3,5.3,0,0,1,.4,2.024H1284.16a5.282,5.282,0,0,1,5.288-5.29Zm21.153,0a5.3,5.3,0,0,1,5.291,5.288h-10.582a5.3,5.3,0,0,1,5.291-5.288Zm-5.291-5.288a5.286,5.286,0,1,1-10.571,0Zm21.153,0a5.286,5.286,0,0,1-10.571,0Zm-37.015-5.288a5.282,5.282,0,0,1,5.291,5.288H1284.16a5.3,5.3,0,0,1,5.291-5.288Zm21.153,0a5.3,5.3,0,0,1,5.291,5.288h-10.582a5.3,5.3,0,0,1,5.291-5.288Z" transform="translate(195.878 27.921)"/>
        </g>
      </g>
    </g>
  </g>
</svg>
