<svg xmlns="http://www.w3.org/2000/svg" width="1156.75" height="200" viewBox="0 0 1156.75 200">
  <g id="Group_55623" data-name="Group 55623" transform="translate(-382 -3681.949)">
    <path id="BG" d="M14.118,0H1142.632c7.8,0,14.118,6.716,14.118,15V185c0,8.284-6.321,15-14.118,15H14.118C6.321,200,0,193.284,0,185V15C0,6.716,6.321,0,14.118,0Z" transform="translate(382 3681.949)" fill="#d76e2d"/>
    <g id="Group_48" data-name="Group 48" transform="translate(323.375 3188)" opacity="0.5">
      <path id="Vector" d="M169.769,13.947A57.07,57.07,0,0,1,193.207,3.688a56.356,56.356,0,0,1,21.808.362V1.193a59.8,59.8,0,0,0-64.421,30.848,55.332,55.332,0,0,0-2.982,6.8c-11.831,4.642-22.059,12.253-31.381,19.892-2.271,1.854-4.557,3.778-6.758,5.632-8.068,6.761-16.4,13.744-25.529,19.181A96.987,96.987,0,0,1,49.929,95.842a90.886,90.886,0,0,1-36.036-1.3A87.064,87.064,0,0,1,0,89.862v3.025a90.76,90.76,0,0,0,13.238,4.349,91.422,91.422,0,0,0,21.711,2.593,98.2,98.2,0,0,0,15.426-1.241,99.91,99.91,0,0,0,35-12.657c9.309-5.548,17.739-12.6,25.877-19.432,2.2-1.854,4.487-3.764,6.744-5.6,8.584-7.026,17.906-14.009,28.5-18.567a46.751,46.751,0,0,0-.139,26.36,38.417,38.417,0,0,0,9.824,16.17,33.41,33.41,0,0,0,16.457,9.061,30.2,30.2,0,0,0,18.812-2.272A26.952,26.952,0,0,0,204.857,78.5a27.514,27.514,0,0,0,.348-20.714A34.1,34.1,0,0,0,192.19,41.143a40.781,40.781,0,0,0-19.8-6.37,55.619,55.619,0,0,0-20.833,2.69c-.153.056-.307.1-.46.153.585-1.436,1.254-2.858,1.979-4.252A56.865,56.865,0,0,1,169.769,13.947ZM152.406,40.1a52.95,52.95,0,0,1,19.788-2.551,38.054,38.054,0,0,1,18.464,5.924,31.178,31.178,0,0,1,11.914,15.25,24.8,24.8,0,0,1-.265,18.623c-4.6,10.232-17.391,16.309-29.11,13.842a30.689,30.689,0,0,1-15.078-8.322,35.771,35.771,0,0,1-9.113-14.985A44.445,44.445,0,0,1,149.814,41C150.678,40.669,151.542,40.377,152.406,40.1Z" transform="translate(536.283 536.112) rotate(4.895)" fill="#fff"/>
      <path id="Vector-2" data-name="Vector" d="M31.344,0,0,17.631l10.017,3.71L25.467,6.856,13.715,22.711l.01,0-.012,0v8.633L19.33,24.79l7.116,2.636Z" transform="matrix(0.313, 0.95, -0.95, 0.313, 766.363, 535.141)" fill="#fff"/>
    </g>
    <g id="Group_76157" data-name="Group 76157" transform="translate(323.375 3188)">
      <g id="Group_76156" data-name="Group 76156">
        <g id="Group_76114" data-name="Group 76114">
          <line id="Line_1" data-name="Line 1" x2="21.923" transform="translate(1051.224 534.393) rotate(106)" fill="none" stroke="#fff" stroke-linecap="round" stroke-width="4"/>
          <line id="Line_3" data-name="Line 3" x2="22.777" transform="translate(1066.813 576.261) rotate(-12.882)" fill="none" stroke="#fff" stroke-linecap="round" stroke-width="4"/>
          <line id="Line_2" data-name="Line 2" x2="26.78" transform="translate(1077.919 540.25) rotate(134.638)" fill="none" stroke="#fff" stroke-linecap="round" stroke-width="4"/>
        </g>
        <g id="Group_76115" data-name="Group 76115">
          <line id="Line_1-2" data-name="Line 1" x2="21.923" transform="matrix(0.642, -0.767, 0.767, 0.642, 838.862, 649.139)" fill="none" stroke="#fff" stroke-linecap="round" stroke-width="4"/>
          <line id="Line_3-2" data-name="Line 3" x2="22.777" transform="translate(841.612 604.548) rotate(-168.93)" fill="none" stroke="#fff" stroke-linecap="round" stroke-width="4"/>
          <line id="Line_2-2" data-name="Line 2" x2="26.78" transform="translate(816.843 632.949) rotate(-21.41)" fill="none" stroke="#fff" stroke-linecap="round" stroke-width="4"/>
        </g>
      </g>
    </g>
  </g>
</svg>
