<svg xmlns="http://www.w3.org/2000/svg" width="423.735" height="523.475" viewBox="0 0 423.735 523.475">
  <g id="Group_55902" data-name="Group 55902" transform="translate(1200 -2981)">
    <rect id="Rectangle_10704" data-name="Rectangle 10704" width="423.735" height="523.475" rx="20" transform="translate(-1200 2981)" fill="#d76e2d"/>
    <g id="Group_55494" data-name="Group 55494" transform="translate(-1200.761 2980.169)" opacity="0.5">
      <path id="Path_332" data-name="Path 332" d="M238.847,302.178a45.448,45.448,0,0,1,7.62,18.893,44.877,44.877,0,0,1-.8,17.349l2.274.067a47.62,47.62,0,0,0-23.053-51.992,44.2,44.2,0,0,0-5.345-2.532c-3.419-9.524-9.239-17.842-15.1-25.439-1.423-1.851-2.9-3.715-4.325-5.511-5.193-6.579-10.558-13.374-14.672-20.765a77.234,77.234,0,0,1-8.994-27.359,72.386,72.386,0,0,1,1.87-28.651,69.332,69.332,0,0,1,4.052-10.949l-2.408-.07a71.883,71.883,0,0,0-6.338,27.654,78.188,78.188,0,0,0,.628,12.307,79.547,79.547,0,0,0,9.259,28.155c4.2,7.538,9.617,14.412,14.864,21.048,1.425,1.8,2.891,3.659,4.3,5.5,5.392,7,10.734,14.578,14.115,23.113a37.22,37.22,0,0,0-20.977-.724,30.582,30.582,0,0,0-13.1,7.443,26.6,26.6,0,0,0-7.6,12.887,24.047,24.047,0,0,0,1.371,15.026A21.464,21.464,0,0,0,186.65,328.6a21.913,21.913,0,0,0,16.479.759,27.155,27.155,0,0,0,13.55-9.972,32.467,32.467,0,0,0,5.531-15.612,44.284,44.284,0,0,0-1.656-16.644c-.041-.123-.071-.246-.112-.369,1.129.5,2.245,1.064,3.338,1.674A45.275,45.275,0,0,1,238.847,302.178Zm-20.41-14.428a42.17,42.17,0,0,1,1.57,15.808,30.294,30.294,0,0,1-5.145,14.558,24.831,24.831,0,0,1-12.415,9.128,19.75,19.75,0,0,1-14.816-.644c-8.037-3.9-12.576-14.221-10.34-23.491a24.437,24.437,0,0,1,6.974-11.807,28.485,28.485,0,0,1,12.139-6.9,35.384,35.384,0,0,1,21.372,1.269C218.022,286.361,218.235,287.055,218.437,287.75Z" fill="#fff"/>
      <path id="Path_333" data-name="Path 333" d="M241.734,359.386l18.087-22.2-8.5.17-7.228,15.236,4.088-15.173h0l-2.517-6.4-2.252,6.494-6.041.121Z" fill="#fff"/>
    </g>
    <line id="Line_53" data-name="Line 53" x1="4.94" y2="17.228" transform="translate(-897.476 3350.403)" fill="none" stroke="#fff" stroke-linecap="round" stroke-width="4"/>
    <line id="Line_54" data-name="Line 54" y1="4.186" x2="18.305" transform="translate(-876.814 3383.215)" fill="none" stroke="#fff" stroke-linecap="round" stroke-width="4"/>
    <line id="Line_55" data-name="Line 55" x1="16.006" y2="16.21" transform="translate(-883.199 3356.614)" fill="none" stroke="#fff" stroke-linecap="round" stroke-width="4"/>
    <line id="Line_56" data-name="Line 56" y1="13.739" x2="11.509" transform="translate(-1106.517 3446.121)" fill="none" stroke="#fff" stroke-linecap="round" stroke-width="4"/>
    <line id="Line_57" data-name="Line 57" x1="18.428" y1="3.605" transform="translate(-1124.292 3416.06)" fill="none" stroke="#fff" stroke-linecap="round" stroke-width="4"/>
    <line id="Line_58" data-name="Line 58" y1="8.315" x2="21.208" transform="translate(-1127.155 3435.58)" fill="none" stroke="#fff" stroke-linecap="round" stroke-width="4"/>
  </g>
</svg>
